<svg width="93" height="112" viewBox="0 0 93 112" fill="none" xmlns="http://www.w3.org/2000/svg">
<path d="M46.301 112C71.8375 112 92.5389 90.2036 92.5389 63.3164C92.5389 36.4292 71.8375 14.6328 46.301 14.6328C20.7645 14.6328 0.0630646 36.4292 0.0630646 63.3164C0.0630646 90.2036 20.7645 112 46.301 112Z" fill="#F8EDE3"/>
<g clip-path="url(#clip0_440_524)">
<ellipse cx="46.447" cy="34.8914" rx="32.6299" ry="35.0208" fill="#E8E9FD"/>
<path d="M42.9844 0.184721C29.5617 1.94361 18.8314 11.6175 15.1246 25.4793C11.6909 38.0846 15.1636 51.4857 24.177 60.5314C28.6253 65.0124 32.6052 67.3576 38.7313 69.1584C42.282 70.2053 51.1784 70.1635 54.6902 69.1165C72.7171 63.5467 82.9402 44.2826 77.8677 25.3955C74.59 13.2089 65.4595 3.82814 54.1829 1.06417C50.2029 0.0590856 46.262 -0.234063 42.9844 0.184721ZM51.9198 2.52991C52.7002 2.69742 53.2074 3.15808 53.5196 3.95377C53.7927 4.62383 54.3 5.46139 54.7292 5.88018C55.2755 6.4246 55.4706 7.17841 55.4706 8.76978C55.4706 11.2406 56.9143 14.0046 58.9433 15.4703C59.5676 15.8891 60.309 16.7267 60.5431 17.313C60.8942 18.1505 60.8162 18.5693 59.9578 19.8257C58.8262 21.6264 58.6311 24.0554 59.6456 24.9348C59.9968 25.2699 60.8162 25.6886 61.4795 25.9399C62.494 26.2749 62.7282 26.61 62.8062 27.8244C63.0793 30.7559 66.0838 32.3054 67.7616 30.3371C68.464 29.4996 68.464 28.5364 67.7226 25.1861C67.3715 23.6785 67.9177 23.7622 69.9467 25.563C71.1953 26.6518 71.8977 27.0288 72.7951 26.945C74.0438 26.8194 76.541 28.3689 76.541 29.2483C76.502 29.709 76.1508 29.9184 71.0003 32.6823C67.3715 34.6087 66.6691 35.5301 66.9422 37.8334C67.1373 39.2572 66.9813 39.9692 66.357 41.0999C65.6546 42.2725 65.5766 42.9006 65.8107 44.7852C66.0058 46.4603 65.8887 47.3398 65.4595 48.303C65.1083 48.973 64.8352 50.6063 64.8352 51.8626C64.8352 53.9984 64.2499 56.3017 63.7036 56.3017C63.5866 56.3017 62.6891 55.6317 61.7527 54.836C60.8162 54.0403 59.7237 53.3702 59.3335 53.3702C58.475 53.3702 55.8607 56.9299 55.8607 58.0606C55.8607 59.0238 56.7582 60.9921 57.5386 61.6622C58.0458 62.1228 58.0068 62.3741 57.3825 63.7142C56.9533 64.5936 56.6411 65.4731 56.6411 65.7662C56.6411 66.2688 54.6902 66.9388 51.2174 67.6089C47.9398 68.2789 47.5106 68.1952 46.9253 66.7294C46.6522 66.0175 45.6377 64.8449 44.6622 64.133C43.4526 63.2117 42.8673 62.3741 42.5942 61.3271C42.3601 60.4896 41.8528 59.4426 41.4236 59.0238C40.7603 58.3538 40.6432 57.8093 40.7212 54.9616C40.8383 51.0669 40.3311 50.2294 37.9119 50.2294C35.7658 50.2294 34.4391 51.4438 32.9564 54.7103C32.254 56.2598 31.3956 57.6837 31.0054 57.8931C30.6152 58.1025 29.0935 58.3956 27.6498 58.4794L24.9574 58.6469L22.8504 56.1761C20.4702 53.3284 17.5828 47.4235 16.6463 43.3613C15.2806 37.5402 15.4757 30.6303 17.1926 25.1023C17.6218 23.7204 17.8559 23.2597 17.7389 24.0554C17.5828 24.8511 17.5047 27.8663 17.5438 30.714C17.5828 33.5618 17.4267 36.242 17.1926 36.6608C16.5683 37.9171 17.4267 39.0897 19.3777 39.6341C20.3922 39.9273 21.2116 40.4298 21.3286 40.8486C21.6798 41.9374 22.6553 42.0212 24.8404 41.1418C27.2986 40.1367 28.5472 38.7128 28.5472 36.8283C28.5472 36.0326 28.7423 35.2788 28.9764 35.1113C29.2105 34.9856 29.9129 33.6455 30.4982 32.1798L31.6297 29.5414L33.1125 30.2115C35.2585 31.1747 38.302 32.0123 39.7067 32.0123C41.5407 32.0123 42.5161 30.8816 42.9844 28.2432C43.2965 26.5262 43.7257 25.6049 44.7793 24.4323C46.223 22.8409 46.8473 20.5376 46.34 18.4437C46.0279 17.1455 44.311 16.0985 42.4381 16.0985C41.6967 16.0985 40.9944 15.931 40.8773 15.7635C40.7993 15.596 41.2675 14.7165 41.9699 13.8371L43.2185 12.2038L44.1159 13.7114C45.2085 15.6378 46.34 16.5173 47.7837 16.5173C48.8763 16.5173 48.8763 16.5173 48.7982 18.9462C48.7592 20.3282 48.8373 21.6264 48.9933 21.8777C49.8518 23.3853 52.7002 20.8726 53.5586 17.8155C54.3 15.1772 53.7537 13.2508 51.5686 11.0731C50.2029 9.69111 49.6567 8.76978 49.4616 7.55531C49.3055 6.67587 48.7592 5.50327 48.252 4.95885C47.4326 4.12129 46.9253 3.95377 44.7402 3.95377C43.3355 3.95377 42.204 3.82814 42.204 3.61875C42.204 2.94869 42.8283 2.3624 43.7648 2.153C44.8573 1.90173 50.1249 2.153 51.9198 2.52991ZM40.253 3.53499C40.253 4.03753 40.6822 4.8751 41.2285 5.46139C42.165 6.46647 42.4381 6.50835 44.5451 6.25708C47.0424 5.96393 46.8863 5.8383 47.4716 8.9373C47.6667 9.85862 48.4081 11.0312 49.6567 12.2876C51.3735 14.0883 51.5686 14.4234 51.5686 16.0985V17.983L50.7882 16.1823C50.1249 14.5909 49.8908 14.4234 48.6812 14.4234C47.3155 14.4234 47.1985 14.2977 44.9744 11.115C43.8038 9.39796 42.3601 9.77487 40.214 12.3713C39.1605 13.6277 38.224 14.9678 38.1069 15.3447C37.7168 16.601 38.5752 17.7318 40.175 17.983C43.8818 18.5693 44.35 18.7787 44.4671 19.8676C44.5842 20.8726 44.272 21.417 42.0089 24.7673C41.6577 25.228 41.1895 26.5681 40.9163 27.6988L40.4481 29.709L38.8873 29.5833C38.0289 29.4996 36.234 28.9552 34.8293 28.4107C33.4636 27.8663 32.0199 27.4057 31.5907 27.4057C30.5762 27.4057 29.0935 29.2064 28.5082 31.0909C28.2741 31.9704 27.7278 33.0174 27.3376 33.478C26.9864 33.9387 26.5962 35.0694 26.5182 35.9907C26.4402 37.3308 26.167 37.7496 25.0745 38.4615C24.099 39.0478 23.6698 39.1735 23.5527 38.7966C23.2016 37.5821 22.3041 37.1214 20.8214 37.3308L19.3386 37.5402L19.4557 34.6925C19.4947 33.1011 19.6118 30.0021 19.6898 27.8244C19.8069 24.5579 20.002 23.4272 20.8604 21.5427C21.4067 20.2863 21.992 18.1924 22.148 16.9361C22.4602 14.1721 23.6308 12.4132 27.1035 9.48172C30.4201 6.67587 32.7223 5.29388 36.4681 3.91189C40.292 2.48803 40.253 2.48803 40.253 3.53499ZM59.5286 5.12637C65.1083 7.9741 69.1663 11.9525 72.6 17.8574C74.434 20.9983 76.1118 25.3117 75.2143 24.516C74.8632 24.181 74.1608 24.0973 73.4975 24.2648C72.6 24.4742 71.9367 24.181 70.2979 23.0084C68.6981 21.8358 67.9567 21.5427 67.2154 21.7521C65.1083 22.3384 64.8352 23.2597 65.7717 26.6518C66.0838 27.6988 66.2399 28.7039 66.1228 28.8295C65.6936 29.2902 64.8352 28.1595 64.8352 27.1125C64.8352 25.4792 64.2109 24.6417 62.494 23.8879C61.1284 23.3016 60.9333 23.0922 61.1674 22.2546C61.2844 21.7521 61.7527 20.9564 62.1429 20.4538C62.6111 19.9513 62.8842 18.9881 62.8842 17.983C62.8842 16.5592 62.6111 16.0985 60.7772 14.214C57.8898 11.2825 57.2654 10.1518 57.6166 8.30912C57.8117 7.09465 57.6556 6.46647 56.8753 5.16825C56.29 4.2888 55.9388 3.53499 56.0949 3.53499C56.2119 3.53499 57.7727 4.24692 59.5286 5.12637ZM76.9702 38.0428C75.7216 49.6012 70.2199 58.6469 61.2454 63.9236C59.1774 65.1381 59.0994 65.1381 59.9968 63.6304C60.5431 62.751 60.5431 62.3741 60.1529 61.369C59.9188 60.699 59.3725 59.8195 58.9433 59.4007C58.0068 58.5213 58.0068 58.0187 58.9823 56.7624L59.7627 55.7992L61.3235 57.3068C63.5476 59.4845 64.6791 59.2332 66.357 56.3017C66.9422 55.2548 67.1764 54.124 67.1764 52.407C67.1764 51.025 67.4495 49.4337 67.8007 48.6799C68.2689 47.7167 68.3469 46.8372 68.1518 45.204C67.9567 43.4032 68.0738 42.6913 68.7371 41.393C69.3224 40.1367 69.4785 39.341 69.2834 38.0428L69.0493 36.2839L72.9122 34.2737L76.7361 32.2217L77.0873 33.1849C77.2433 33.7293 77.2043 35.7813 76.9702 38.0428ZM38.6142 55.6735C38.5752 58.5213 38.6532 58.9401 39.5507 59.987C40.0969 60.6152 40.6822 61.704 40.8383 62.4578C41.0724 63.7561 41.5407 64.3424 43.9599 66.52C44.6232 67.0645 45.0134 67.6508 44.8963 67.7764C44.4671 68.2789 38.9264 67.1063 35.8438 65.9337C32.7613 64.7193 28.6643 62.2485 27.7278 61.0759C27.2986 60.4896 27.3766 60.4058 28.3911 60.5314C31.4737 60.7827 33.3466 59.4007 34.7903 55.7992C35.9219 52.8677 36.234 52.5327 37.5607 52.5327H38.6922L38.6142 55.6735Z" fill="black"/>
</g>
<path d="M50.7102 35.237C49.6176 35.4045 48.4471 36.7446 48.4471 37.7497C48.4471 38.0428 48.9933 38.9223 49.6176 39.6761C50.437 40.6812 50.7882 41.5606 50.7882 42.5657C50.7882 44.3665 51.3735 44.9946 53.0123 44.9946C54.0658 44.9946 54.7292 44.5758 56.2509 42.9845C57.3435 41.8538 58.2019 40.5974 58.2019 40.1367C58.1629 39.718 57.4215 38.4197 56.5241 37.3309C54.8072 35.237 53.4025 34.7344 50.7102 35.237ZM54.6901 38.7129L55.5096 39.9692L54.456 41.435C53.1684 43.2776 52.7392 43.2776 52.7392 41.5187C52.7392 40.5555 52.427 39.8017 51.7637 39.1317C50.5931 37.9591 50.8272 37.4565 52.5441 37.4565C53.5586 37.4565 54.0268 37.7497 54.6901 38.7129Z" fill="black"/>
<path d="M40.0579 37.4146C38.341 37.8753 35.6097 39.9273 34.9463 41.3093C34.4391 42.3562 34.4391 42.5237 35.1805 43.3194C35.8048 43.9895 36.4681 44.157 38.6532 44.157C40.0969 44.157 42.36 44.2826 43.6477 44.4083C45.5206 44.6177 46.0669 44.5339 46.6131 43.9895C47.5886 42.9425 47.4716 42.3981 45.7157 40.0529C44.389 38.294 42.4381 36.912 41.4626 37.0796C41.3455 37.1214 40.6822 37.2471 40.0579 37.4146ZM43.6477 41.0999L44.6231 42.44L43.1404 42.0212C42.36 41.7699 40.7602 41.6443 39.6287 41.7281C38.4581 41.7699 37.5216 41.7699 37.5216 41.6024C37.5216 41.4768 38.185 40.9743 39.0044 40.4717C40.9553 39.2154 42.4381 39.4248 43.6477 41.0999Z" fill="black"/>
<g clip-path="url(#clip1_440_524)">
<path d="M-0.81488 38.1893L4.74538 47.2979L11.4762 63.1593H18.9387L27.5717 68.6558L30.4981 83.418L36.6437 97.866H11.4762V86.8729L15.1343 83.418V80.7482L4.74538 67.0854L-0.81488 38.1893Z" fill="#FFD3B9"/>
<path d="M1.5068 46.2928C1.07759 46.5441 0.531319 47.3398 0.258183 48.0936C-0.210049 49.2662 -0.0929909 50.3132 1.03857 57.0556L2.32621 64.6774L8.41323 72.9275C14.071 80.675 14.5002 81.345 14.5002 82.9783C14.5002 84.0252 14.3051 84.779 14.071 84.779C13.0565 84.779 11.0665 86.161 10.6373 87.1242C10.4032 87.7105 10.2081 90.3489 10.2081 93.3222C10.2081 100.609 9.23263 100.065 22.3822 100.065H32.9174L33.6587 99.0596C34.2831 98.222 34.4001 97.3844 34.4001 92.9453C34.4001 88.0456 34.3611 87.7105 33.4246 86.5379C32.8784 85.8679 32.0199 85.156 31.4737 85.0303C30.6152 84.779 30.5372 84.6115 30.7713 83.6065C30.9664 82.9783 31.0835 80.9681 31.0444 79.0836C31.0054 75.4821 29.9909 72.2993 27.9619 69.4516C26.4011 67.2739 20.119 61.7459 18.8704 61.4947C17.4657 61.2015 15.4367 62.2485 15.0855 63.4211C14.7344 64.6356 14.1491 64.4262 12.1201 62.4579C10.3642 60.7409 10.2471 60.5315 8.60832 54.2916C6.69637 47.0048 5.99403 45.8322 3.61385 45.8322C2.83346 45.8322 1.897 46.0416 1.5068 46.2928ZM6.89147 55.171L8.84244 62.2066L15.2026 67.8602C21.2116 73.1787 22.3431 73.9744 22.8504 73.095C23.2796 72.3831 22.6553 71.5874 19.5337 68.9071C17.4657 67.0645 16.4512 65.8919 16.4512 65.3056C16.4512 64.2168 17.1536 63.4211 18.129 63.4211C18.9875 63.4211 24.9184 68.614 26.3621 70.666C28.7813 74.0582 29.7958 78.8323 28.9374 82.6433L28.4692 84.779H22.4602H16.4512V82.727C16.4512 80.7168 16.3342 80.5075 10.2862 72.2574L4.1211 63.8399L2.9115 56.6368C1.5068 48.5961 1.58484 47.8005 3.69189 48.0098L4.9405 48.1355L6.89147 55.171ZM31.7858 87.7943C32.2931 88.6319 31.1225 90.307 30.147 90.1395C29.7568 90.0557 29.5227 90.307 29.5617 90.7258C29.6007 91.1027 28.5862 92.4847 27.3376 93.8248C25.1135 96.17 25.0355 96.2118 24.2941 95.4999C23.8649 95.0811 23.3186 94.8717 23.0845 95.0392C22.4992 95.4162 24.138 97.3426 24.9964 97.3426C25.3086 97.3426 26.6743 96.2118 28.0009 94.788L30.4201 92.2334L31.4346 92.9453C32.3711 93.6154 32.4882 93.9085 32.3711 95.6255L32.254 97.5519L22.2261 97.6776L12.1591 97.7613V92.7778C12.1591 88.4225 12.2371 87.7105 12.8614 87.3336C13.2516 87.0405 16.8804 86.9148 22.4602 86.9986C30.3421 87.0824 31.4346 87.1661 31.7858 87.7943ZM32.4491 91.1027C32.4491 92.1915 32.3711 92.359 31.8639 91.8984C31.4346 91.5215 31.3956 91.2283 31.7858 90.6001C32.4101 89.5532 32.4491 89.5951 32.4491 91.1027Z" fill="black"/>
</g>
<path d="M15.0855 90.4326C14.5393 90.977 14.11 91.9402 14.11 92.5265C14.11 93.1128 14.5393 94.076 15.0855 94.6204C15.5928 95.2067 16.4902 95.6674 17.0365 95.6674C18.3241 95.6674 19.9629 93.9085 19.9629 92.5265C19.9629 91.1445 18.3241 89.3856 17.0365 89.3856C16.4902 89.3856 15.5928 89.8463 15.0855 90.4326ZM17.6218 92.5265C17.6218 92.8615 17.3487 93.1547 17.0365 93.1547C16.7243 93.1547 16.4512 92.8615 16.4512 92.5265C16.4512 92.1915 16.7243 91.8983 17.0365 91.8983C17.3487 91.8983 17.6218 92.1915 17.6218 92.5265Z" fill="black"/>
<path d="M16.3731 97.217C16.6073 97.3007 17.0755 97.3007 17.3486 97.217C17.5827 97.0913 17.3876 97.0076 16.8414 97.0076C16.2951 97.0076 16.1 97.0913 16.3731 97.217Z" fill="black"/>
<g clip-path="url(#clip2_440_524)">
<path d="M92.4073 38.1893L87.301 47.2979L81.1196 63.1593H74.2664L63.6507 73.0531L61.5186 86.8729L58.0069 97.866H81.1196V86.8729L77.7602 83.418V80.7482L87.301 67.0854L92.4073 52.6374V38.1893Z" fill="#FFD3B9"/>
<path d="M87.1543 46.6697C86.4129 47.4235 85.9057 48.9311 83.2914 58.3119C82.667 60.4895 82.2378 61.2015 80.6771 62.5835C79.6235 63.5048 78.6871 64.2586 78.531 64.2586C78.4139 64.2586 77.9847 63.7142 77.6336 63.0441C76.8922 61.5784 74.7851 60.9502 73.3804 61.7459C71.7026 62.7091 65.9668 68.0695 64.8352 69.7865C62.8452 72.718 61.9868 75.7751 62.0258 79.7536C62.0258 81.7219 62.1039 83.6902 62.1819 84.1508C62.2599 84.7371 62.0648 85.0303 61.4795 85.114C61.0113 85.1978 60.2309 85.7003 59.7237 86.2866C58.8652 87.2498 58.7872 87.7942 58.6702 92.1915C58.5141 97.5938 58.8652 99.1014 60.5041 99.8552C61.2454 100.148 64.6791 100.274 71.3514 100.19C83.6815 100.023 82.7841 100.567 82.7841 93.0709C82.7841 86.8729 82.4719 85.9097 80.0137 85.114C78.57 84.6534 78.492 84.5696 78.492 82.9363C78.492 81.345 78.9992 80.5493 84.54 72.9693L90.627 64.7193L91.9146 57.0555C93.1242 50.2712 93.2023 49.2661 92.734 48.0935C92.4609 47.3397 91.8756 46.544 91.4464 46.2928C90.1588 45.539 88.0907 45.7484 87.1543 46.6697ZM90.9391 48.6798C91.2123 49.2661 90.9782 51.5276 90.0807 56.6367L88.8711 63.8398L82.7061 72.2155C76.6581 80.5074 76.541 80.6749 76.541 82.7269V84.779H70.532C63.7036 84.779 64.1719 85.0721 63.7817 80.8005C63.3915 76.3614 65.0303 72.0061 68.1909 68.8233C72.3269 64.7193 74.1999 63.3373 75.1363 63.5885C76.1508 63.8398 76.6581 64.8449 76.3459 65.8918C76.2679 66.2688 74.7461 67.7764 73.0293 69.284C69.9858 71.8805 69.3224 73.0949 70.7661 73.3881C71.1173 73.4718 74.1218 71.0848 77.7506 67.8601L84.1108 62.1647L85.9447 55.4641C86.9592 51.7788 87.8956 48.5961 88.0517 48.3448C88.4809 47.6329 90.5099 47.8423 90.9391 48.6798ZM80.2478 87.543C80.7551 88.0874 80.8331 89.0506 80.7551 92.9034L80.638 97.5519L70.6101 97.6775L60.5431 97.7613V92.9871C60.5431 89.1762 60.6601 88.0455 61.1674 87.543C62.0648 86.5379 79.3114 86.5379 80.2478 87.543Z" fill="black"/>
</g>
<path d="M79.0773 88.5482C78.9602 88.7995 79.1163 88.8413 79.4284 88.7157C80.1308 88.4225 80.2478 88.1294 79.7016 88.1294C79.4674 88.1294 79.1943 88.2969 79.0773 88.5482Z" fill="black"/>
<path d="M73.9267 90.4745C73.1463 91.3121 72.9903 91.8146 73.1463 92.9453C73.2634 93.8248 73.1854 94.453 72.9122 94.5786C72.6391 94.7042 72.7952 94.7461 73.2244 94.7042C73.6926 94.6623 74.0048 94.8717 74.0048 95.2486C74.0048 96.17 76.8922 95.7931 77.9847 94.7461C78.8041 93.9085 79.3894 90.7677 78.8041 90.3908C78.609 90.2651 78.609 89.972 78.7261 89.7207C78.8822 89.4275 78.8041 89.3857 78.531 89.5532C78.1798 89.8045 78.1798 90.0557 78.57 90.5583C78.8432 90.9352 78.57 90.8095 77.9457 90.307C76.463 89.0925 75.1753 89.1344 73.9267 90.4745ZM76.541 92.5265C76.541 92.8616 76.2679 93.1547 75.9557 93.1547C75.6436 93.1547 75.3704 92.8616 75.3704 92.5265C75.3704 92.1915 75.6436 91.8984 75.9557 91.8984C76.2679 91.8984 76.541 92.1915 76.541 92.5265Z" fill="black"/>
<path d="M79.3504 92.5265C79.3504 93.1965 79.4284 93.4478 79.5455 93.029C79.6235 92.6521 79.6235 92.0658 79.5455 91.7727C79.4284 91.5214 79.3504 91.8146 79.3504 92.5265Z" fill="black"/>
<path d="M78.0627 95.1229C77.5555 95.7092 77.3214 96.0861 77.5555 95.9604C77.7896 95.7929 78.2969 96.0442 78.6871 96.5048C79.0772 96.9655 79.6235 97.3424 79.9357 97.3424C80.7161 97.3424 80.56 96.3373 79.6235 95.751C79.1553 95.416 78.9212 94.9553 79.0382 94.5784C79.3504 93.7409 79.1553 93.8246 78.0627 95.1229Z" fill="black"/>
<path d="M68.542 96.0863L66.5911 96.7982L68.0738 97.1332C69.4005 97.4264 69.7126 97.3007 70.6101 96.3375C71.8197 95.0812 71.3904 94.9974 68.542 96.0863Z" fill="black"/>
<path d="M75.4875 96.3793C75.8387 96.4631 76.3849 96.4631 76.6581 96.3793C76.8922 96.2537 76.619 96.1699 75.9557 96.1699C75.3314 96.1699 75.0973 96.2537 75.4875 96.3793Z" fill="black"/>
<path d="M64.9522 97.217C65.3034 97.3007 65.8497 97.3007 66.1228 97.217C66.3569 97.0913 66.0838 97.0076 65.4205 97.0076C64.7962 97.0076 64.562 97.0913 64.9522 97.217Z" fill="black"/>
<defs>
<clipPath id="clip0_440_524">
<rect width="65.3433" height="69.923" fill="white" transform="matrix(1 0 0 -1 13.8224 69.923)"/>
</clipPath>
<clipPath id="clip1_440_524">
<rect width="34.4001" height="54.2417" fill="white" transform="matrix(1 0 0 -1 0 100.074)"/>
</clipPath>
<clipPath id="clip2_440_524">
<rect width="34.3635" height="54.3817" fill="white" transform="matrix(1 0 0 -1 58.6366 100.216)"/>
</clipPath>
</defs>
</svg>
