<svg width="131" height="137" viewBox="0 0 131 137" fill="none" xmlns="http://www.w3.org/2000/svg">
<path d="M51.6793 135C80.221 135 103.359 111.748 103.359 83.0651C103.359 54.3822 80.221 31.1301 51.6793 31.1301C23.1376 31.1301 0 54.3822 0 83.0651C0 111.748 23.1376 135 51.6793 135Z" fill="#F8EDE3"/>
<mask id="mask0_3_795" style="mask-type:alpha" maskUnits="userSpaceOnUse" x="0" y="1" width="116" height="134">
<path d="M113.456 91.403C114.569 103.077 102.461 94.1516 100.802 99.2429C94.036 120.004 74.6002 135 51.6793 135C23.1376 135 0 111.748 0 83.065C0 54.3821 0 1 51.6793 1C88.2181 1 110.319 21.3197 113.456 47.0933C113.827 50.1498 115.759 61.7217 115.949 64.7065C116.422 72.151 113.456 85.4047 113.456 91.403Z" fill="#EFA6B4"/>
</mask>
<g mask="url(#mask0_3_795)">
<path d="M68.4278 32.1152H22.7695C17.2467 32.1152 12.7695 36.5924 12.7695 42.1152V139.294C12.7695 144.817 17.2467 149.294 22.7695 149.294H68.4278C73.9506 149.294 78.4278 144.817 78.4278 139.294V42.1152C78.4278 36.5924 73.9506 32.1152 68.4278 32.1152Z" fill="#292C32" stroke="#292C32" stroke-width="2"/>
<path d="M74.5099 24.4756H28.8516C23.3288 24.4756 18.8516 28.9527 18.8516 34.4756V131.655C18.8516 137.177 23.3288 141.655 28.8516 141.655H74.5099C80.0328 141.655 84.5099 137.177 84.5099 131.655V34.4756C84.5099 28.9527 80.0328 24.4756 74.5099 24.4756Z" fill="white" stroke="#292C32" stroke-width="2"/>
<path d="M104.597 44.8364H39.0566C37.952 44.8364 37.0566 45.7319 37.0566 46.8364V88.2023C37.0566 89.3069 37.952 90.2023 39.0566 90.2023H104.597C105.702 90.2023 106.597 89.3069 106.597 88.2023V46.8364C106.597 45.7319 105.702 44.8364 104.597 44.8364Z" fill="#292C32" stroke="#292C32" stroke-width="2"/>
<path d="M108.398 41.0166H42.8574C41.7528 41.0166 40.8574 41.912 40.8574 43.0166V84.3825C40.8574 85.4871 41.7528 86.3825 42.8574 86.3825H108.398C109.503 86.3825 110.398 85.4871 110.398 84.3825V43.0166C110.398 41.912 109.503 41.0166 108.398 41.0166Z" fill="#343472" stroke="#292C32" stroke-width="2"/>
<path d="M94.1467 80.616C96.7033 80.616 98.7758 78.5333 98.7758 75.964C98.7758 73.3948 96.7033 71.312 94.1467 71.312C91.5901 71.312 89.5176 73.3948 89.5176 75.964C89.5176 78.5333 91.5901 80.616 94.1467 80.616Z" fill="white"/>
<path d="M100.319 80.616C102.876 80.616 104.948 78.5333 104.948 75.964C104.948 73.3948 102.876 71.312 100.319 71.312C97.7624 71.312 95.6899 73.3948 95.6899 75.964C95.6899 78.5333 97.7624 80.616 100.319 80.616Z" fill="#FFD3B9"/>
<path d="M68.7042 75.2H49.8031C49.3811 75.2 49.0391 75.542 49.0391 75.9639C49.0391 76.3858 49.3811 76.7279 49.8031 76.7279H68.7042C69.1262 76.7279 69.4682 76.3858 69.4682 75.9639C69.4682 75.542 69.1262 75.2 68.7042 75.2Z" fill="white"/>
<path d="M37.6172 24.5569H65.7448V24.9904C65.7448 27.1996 63.9539 28.9904 61.7448 28.9904H41.6172C39.408 28.9904 37.6172 27.1996 37.6172 24.9904V24.5569Z" fill="#292C32"/>
</g>
</svg>
