<svg width="93" height="112" viewBox="0 0 93 112" fill="none" xmlns="http://www.w3.org/2000/svg">
<path d="M40.4429 2.50922L36.0166 5.01839H30.6583C26.6513 5.01839 25.0206 5.20087 24.2751 5.7027C23.7626 6.06767 22.1318 8.39435 20.6408 10.8123L18.0316 15.2832L13.8382 17.5642C7.92087 20.7577 7.82768 20.8946 7.82768 27.2359V32.4823L5.26506 36.9076C1.91035 42.6559 1.91035 43.3858 5.26506 48.9516L7.82768 53.24V58.4864C7.82768 64.8734 7.78109 64.7365 13.8848 68.3406C18.1714 70.8954 18.3111 71.0322 20.6408 75.0013C24.0421 80.7495 24.0421 80.7495 30.5652 80.7495H35.97L40.3963 83.3043C46.0807 86.6803 46.7796 86.6803 52.6037 83.3043L57.0767 80.7495H62.4349C68.958 80.7495 68.958 80.7495 72.3593 75.0013C74.6889 71.0322 74.8287 70.8954 79.1153 68.3406C85.219 64.7365 85.1724 64.8278 85.1724 58.532V53.2856L87.735 48.8603C91.0431 43.1577 91.0431 42.519 87.735 36.9532L85.1724 32.6192V27.2815C85.1724 20.8946 85.1258 20.8033 78.9755 17.4273C74.8753 15.1919 74.7821 15.1007 72.499 11.086C69.0511 5.06401 68.958 5.01839 62.4815 5.01839H57.0301L52.5106 2.50922C49.482 0.821237 47.4785 5.53392e-05 46.4068 5.53392e-05C45.4284 5.53392e-05 43.3317 0.866858 40.4429 2.50922ZM49.7616 30.475C51.1594 34.0791 52.5106 37.1357 52.7435 37.3182C53.0231 37.5007 56.2846 38.9149 60.0121 40.466C65.3237 42.6559 66.5817 43.3402 65.8362 43.6139C65.3237 43.7964 62.0622 45.0282 58.6143 46.3512L52.3242 48.6779L49.2956 55.5667C47.6649 59.3532 46.2205 62.3642 46.0807 62.2273C45.9875 62.1361 44.6829 58.9882 43.2385 55.2929L40.5827 48.5866L33.5471 45.6669C29.6333 44.0245 26.5581 42.6559 26.6513 42.5646C26.7445 42.4734 29.9129 41.2416 33.7335 39.7817L40.6759 37.1813L43.7044 30.2469C45.3818 26.4147 46.8728 23.4493 47.0126 23.6318C47.1523 23.8143 48.4104 26.8709 49.7616 30.475Z" fill="#343472"/>
<path d="M9.22545 83.0762C7.08216 87.1821 4.14679 93.0672 2.7024 96.1238L0 101.644L4.51954 100.093C6.98898 99.2261 10.5301 97.9943 12.3938 97.31C14.2575 96.6713 15.8417 96.2151 15.9349 96.3063C16.0281 96.3976 17.2395 99.956 18.6373 104.244L21.1999 112L27.3036 100.047C30.7981 93.2497 33.2209 87.9576 32.988 87.8208C32.7084 87.6383 30.9845 87.5927 29.1207 87.6383C21.992 87.7752 19.1964 86.1328 15.1428 79.1984L13.0461 75.5943L9.22545 83.0762Z" fill="#FFD3B9"/>
<path d="M77.7641 79.1984C73.6639 86.1328 71.3342 87.5927 64.3918 87.5927C62.0622 87.5927 60.0587 87.7295 59.8723 87.8664C59.7325 88.0489 62.3417 93.5234 65.6965 100.093L71.8002 112L74.3628 104.244C75.714 99.956 76.972 96.3976 77.0652 96.3063C77.205 96.1238 83.1223 98.0855 90.1113 100.64L93.0001 101.644L89.8317 95.2114C86.2441 87.7295 80.0938 75.7312 79.9074 75.7312C79.8608 75.7312 78.8823 77.2823 77.7641 79.1984Z" fill="#FFD3B9"/>
</svg>
