<svg width="93" height="112" viewBox="0 0 93 112" fill="none" xmlns="http://www.w3.org/2000/svg">
<path d="M43.7224 0.242725C40.8467 0.77916 38.8483 1.80733 35.7776 4.40009C32.122 7.43989 29.7337 8.33395 24.0797 8.73628C18.8156 9.0939 16.7197 9.76444 13.9902 11.9996C11.017 14.5029 9.79842 17.1851 9.40849 22.1918C9.0673 27.288 8.04373 29.5231 4.58309 33.0099C1.12245 36.4968 0.00139914 38.7319 0.00139914 42.487C-0.0473423 46.4208 1.17119 48.9689 4.63183 52.4557C8.04373 55.8531 9.01856 58.0436 9.45723 63.2738C9.70094 66.2689 10.1396 68.1464 10.8707 69.4428C11.4556 70.471 11.9918 71.3203 12.138 71.3203C12.2355 71.3203 13.7465 68.5935 15.5012 65.2854L18.6206 59.2953L17.0121 56.479C10.9195 46.0185 12.4792 32.4735 20.7652 23.1753C25.0545 18.3921 31.6346 14.5477 38.2147 12.9383C42.4552 11.9102 50.1076 11.9102 54.2993 12.8936C71.7 17.051 82.5693 32.9205 78.9137 48.7454C78.5238 50.4441 77.3053 53.5733 76.1842 55.719L74.1858 59.5635L77.4515 65.5537L80.7172 71.4991L81.9357 69.3534C82.813 67.7441 83.203 66.0901 83.4954 62.648C83.9828 57.2836 84.8114 55.5402 88.3696 52.1875C91.8302 48.8795 93 46.3761 93 42.487C93 38.7319 91.9277 36.5415 88.2721 32.8758C84.9577 29.5231 83.9828 27.3327 83.5442 22.1471C83.1542 17.3192 82.4231 15.397 79.986 12.8936C77.3053 10.1668 74.332 9.0492 68.9217 8.73628C63.2677 8.33395 60.8794 7.48459 57.1263 4.31069C52.8858 0.77916 48.4016 -0.60663 43.7224 0.242725Z" fill="#343472"/>
<path d="M41.2366 17.8556C37.6785 18.6603 32.0733 21.2978 29.3437 23.4882C28.0765 24.4717 26.0781 26.6621 24.8595 28.3161C17.4021 38.6425 18.8156 52.1428 28.2227 60.7704C31.927 64.1678 36.9474 66.5818 42.4552 67.61C47.768 68.6381 51.911 68.0123 57.6625 65.4642C69.9941 59.9211 75.9405 47.0913 71.8462 34.9768C67.7032 22.9071 53.7632 15.0841 41.2366 17.8556ZM52.8858 28.0479C54.4943 30.1042 54.6893 33.8593 53.3732 37.0332C51.911 40.6541 52.3984 40.967 59.076 40.8776C63.5115 40.8329 64.2913 40.9223 64.8762 41.6376C65.851 42.8446 65.6561 44.3645 64.4375 45.1244C63.6089 45.6608 63.4627 45.9291 63.9501 46.3761C64.6812 47.0466 64.73 49.2371 64.0476 49.6394C63.8039 49.7735 63.5602 50.5782 63.5602 51.3828C63.5602 52.2322 63.219 53.1262 62.8291 53.4391C62.3904 53.7968 62.1954 54.3779 62.3904 55.0484C62.5854 55.719 62.3904 56.5683 61.903 57.2389L61.1231 58.3565H51.0824H41.0417L39.6282 57.0601L38.2147 55.7637V49.0136V42.2634L40.3105 41.1011C45.1847 38.3296 47.9629 34.351 47.9629 30.1489C47.9629 27.6456 48.6941 26.6174 50.4 26.6174C51.4236 26.6174 52.106 27.0197 52.8858 28.0479ZM36.6549 41.4588C37.0449 41.8164 37.2398 44.3197 37.2398 49.6841C37.2398 58.9376 37.2886 58.8035 32.3657 58.8035C27.4428 58.8035 27.4916 58.9376 27.4916 49.6841C27.4916 44.3197 27.6865 41.8164 28.0765 41.4588C28.4176 41.1458 30.1236 40.9223 32.3657 40.9223C34.6078 40.9223 36.3138 41.1458 36.6549 41.4588Z" fill="#343472"/>
<path d="M30.9522 52.3664C29.7336 53.171 29.6362 54.8697 30.7085 55.8532C31.6833 56.792 32.5119 56.7473 33.8767 55.7191C34.8515 55.0038 34.949 54.6909 34.559 53.6628C33.9254 52.0535 32.3169 51.517 30.9522 52.3664Z" fill="#343472"/>
<path d="M10.5295 82.5408C4.8268 93.1354 0.196365 102.121 0.196365 102.478C0.196365 102.836 0.537555 103.417 0.927486 103.819C1.56112 104.4 2.53595 104.445 6.92268 104.177C12.9179 103.819 12.4305 103.596 15.5499 108.424C16.5735 110.033 17.6945 111.464 17.9382 111.642C18.7668 112.179 20.1803 112.045 20.8627 111.419C21.5451 110.838 41.6266 73.6896 41.6266 73.0637C41.6266 72.8402 41.1879 72.6614 40.7005 72.6614C36.9474 72.6614 28.6126 68.9511 24.2259 65.3301C22.8611 64.2126 21.5451 63.2738 21.3014 63.2738C21.0577 63.2738 16.1835 71.9462 10.5295 82.5408Z" fill="#FFD3B9"/>
<path d="M69.6041 64.6596C66.046 68.1017 56.2002 72.6614 52.3009 72.6614C51.8135 72.6614 51.3748 72.885 51.3748 73.1085C51.3748 73.3767 56.1027 82.2279 61.8542 92.7778C71.8949 111.195 72.3824 112 73.6984 112C75.1606 112 75.4043 111.732 78.4263 107.217L80.4734 104.177H86.4686C92.2201 104.177 92.4638 104.132 92.8538 103.149C93.1949 102.344 91.3428 98.5891 82.6668 82.7196C76.8666 72.0356 71.8462 63.2738 71.6025 63.2738C71.3101 63.2738 70.4327 63.8997 69.6041 64.6596Z" fill="#FFD3B9"/>
<path d="M43.0888 78.4728C41.4803 81.4232 40.1643 83.9265 40.1643 84.0159C40.1643 84.1053 40.8467 84.4183 41.6753 84.6865C44.746 85.6699 52.3497 85.0441 52.3497 83.7924C52.3497 83.1219 46.7931 73.1084 46.4032 73.1084C46.2082 73.1084 44.6973 75.5224 43.0888 78.4728Z" fill="#FFD3B9"/>
</svg>
