<svg width="93" height="112" viewBox="0 0 93 112" fill="none" xmlns="http://www.w3.org/2000/svg">
<path d="M40.5673 0.729551C40.0862 1.1154 39.4048 2.08004 39.0841 2.89998C38.5229 4.20223 38.2823 4.2987 36.2379 4.2987C33.5522 4.2987 32.3095 5.50449 31.8685 8.59131C31.628 10.4241 31.4276 10.7135 29.8642 11.5334C28.9022 12.0158 27.9401 12.8839 27.6996 13.4145C27.1384 14.6203 27.1384 16.8872 27.6595 18.5753C28.0203 19.7328 27.9401 20.0705 26.8979 21.3727C24.8134 23.9772 24.8935 26.0512 27.1384 28.9451C27.9401 30.0062 28.0604 30.4403 27.6996 31.212C27.4591 31.7908 27.2586 33.0448 27.2586 34.1059C27.2586 36.2281 28.3009 37.7232 30.3453 38.5914C31.3875 39.0255 31.6681 39.4114 31.8685 41.0995C32.069 42.3053 32.5901 43.6075 33.3116 44.4757C34.3138 45.6332 34.7548 45.8262 36.278 45.7297C37.9616 45.585 38.1621 45.7297 39.525 47.6107C40.6875 49.2989 41.2086 49.6365 42.3711 49.6365C43.1729 49.6365 44.4155 49.2024 45.1371 48.6236L46.5 47.6107L47.8629 48.6236C48.5845 49.2024 49.8272 49.6365 50.6289 49.6365C51.7914 49.6365 52.2724 49.2989 53.4349 47.6107C54.7578 45.6815 54.9582 45.585 56.6819 45.7297C58.2453 45.8262 58.6862 45.6332 59.6884 44.4757C60.4099 43.6075 60.931 42.3053 61.1315 41.0995C61.3319 39.4114 61.6125 39.0255 62.6548 38.5914C65.4207 37.3856 66.3828 34.8776 65.3405 31.5014C64.9798 30.392 65.0599 30.0062 65.8617 28.9451C68.1065 26.0512 68.1867 23.9772 66.1022 21.3727C65.0599 20.0705 64.9798 19.7328 65.3405 18.5753C65.8617 16.8872 65.8617 14.6203 65.3004 13.4145C65.0599 12.8839 64.0979 12.0158 63.0957 11.5334C61.5323 10.7135 61.3319 10.4241 61.0914 8.54308C60.6504 5.50449 59.4479 4.2987 56.8022 4.2987C54.8379 4.2987 54.5173 4.154 53.916 2.94821C52.2724 -0.186851 50.6289 -0.717399 48.0634 1.01894L46.5 2.08004L44.9366 1.01894C43.0927 -0.235082 41.8099 -0.331546 40.5673 0.729551ZM46.5 6.71028C46.941 6.71028 48.0233 6.27619 48.9052 5.74565L50.4685 4.78101L51.3104 6.46912C52.2724 8.30192 54.2767 9.36302 56.0806 8.88071C57.1629 8.59131 57.203 8.68778 57.4435 10.5688C57.6841 12.8839 58.606 14.2827 60.45 15.2473C61.853 15.9708 61.853 15.8743 61.372 18.3341C60.9711 20.3598 61.5323 22.3373 62.8552 23.7843L63.7371 24.7007L62.5345 26.3406C61.1716 28.1734 61.0112 29.0898 61.5323 32.2731C61.7729 33.9129 61.7328 34.0094 60.3298 34.6364C58.6862 35.3117 57.3233 37.5786 57.3233 39.6043C57.3233 40.9065 57.2431 40.9548 55.2388 40.9548C53.3548 40.9548 53.0741 41.0995 51.631 42.9323C50.1879 44.7651 50.0276 44.8615 49.1858 44.2345C47.5823 42.9805 46.4198 42.884 44.5759 43.8487L42.772 44.8133L41.2888 42.884C39.9259 41.0995 39.6453 40.9548 37.7612 40.9548C35.9173 40.9548 35.6767 40.8101 35.6767 39.9901C35.6767 37.7715 34.5142 35.6011 32.9108 34.7811L31.3073 33.9612L31.5479 31.019C31.7483 28.2698 31.7082 28.0287 30.5056 26.3888L29.2629 24.7007L30.1448 23.7843C31.4677 22.3373 32.0289 20.3598 31.628 18.3341C31.147 15.8743 31.147 15.9708 32.5901 15.2473C34.394 14.2827 35.316 12.8839 35.5565 10.5688C35.797 8.68778 35.8371 8.59131 36.9194 8.88071C38.7233 9.36302 40.7276 8.30192 41.6897 6.46912L42.5315 4.78101L44.0948 5.74565C44.9767 6.27619 46.0591 6.71028 46.5 6.71028Z" fill="#FFD3B9"/>
<path d="M48.0233 22.482L43.734 27.6428L41.9302 25.617C39.8858 23.3501 39.3246 23.1572 38.3625 24.4595C37.2802 25.9064 37.5608 26.6299 40.2866 29.8614C43.8944 33.9611 44.1349 33.9129 50.228 26.5817C54.9582 20.8903 55.8401 19.3469 54.9181 18.0447C53.7155 16.3083 52.4327 17.1765 48.0233 22.482Z" fill="#FFD3B9"/>
<path d="M10.6228 28.2698C1.32284 32.4177 0 33.2377 0 34.6364C0 35.0705 1.68362 37.9644 3.7681 41.003L7.53621 46.5978L3.7681 52.0963C1.72371 55.1348 0 57.9323 0 58.3181C0 59.6204 0.601293 60.1992 3.04655 61.405L5.41164 62.5625L5.61207 77.9484C5.73233 86.389 5.89267 93.3343 5.93276 93.3343C6.53405 93.7684 12.9078 96.7106 28.1405 103.656L46.5 112L64.8194 103.656C80.0522 96.7588 86.4659 93.7684 87.0672 93.3343C87.1073 93.3343 87.2677 86.389 87.3879 77.9484L87.5884 62.5625L89.9534 61.405C92.3987 60.1992 93 59.6204 93 58.3181C93 57.9323 91.2763 55.1348 89.2319 52.0963L85.4638 46.5978L89.2319 41.003C91.3164 37.9644 93 35.0705 93 34.6364C93 33.2377 91.7172 32.466 82.4172 28.2216C73.7586 24.3148 73.1573 24.1219 72.2754 24.7971C71.3134 25.5688 71.1129 26.7264 71.7142 27.8357C71.8746 28.1733 75.5224 30.0544 79.7716 32.0319C84.0207 34.0094 87.5483 35.6493 87.5884 35.7457C87.7086 35.8904 86.506 37.7232 83.1789 42.4981L82.2569 43.8004L76.5647 41.1959C73.3978 39.7489 70.4315 38.5432 69.9504 38.5432C67.9862 38.5432 67.5453 41.63 69.3491 42.7393C69.9103 43.1252 71.8345 44.0416 73.6784 44.8615C75.5224 45.6814 76.8853 46.5496 76.6849 46.7425C76.5246 46.9355 69.6297 50.167 61.4522 53.8808L46.5 60.6815L31.5879 53.8808C23.3703 50.167 16.4754 46.9355 16.3151 46.7425C16.1147 46.5496 17.4776 45.6814 19.3216 44.8615C21.1655 44.0416 23.0897 43.1252 23.6509 42.7393C25.4547 41.63 25.0138 38.5432 23.0496 38.5432C22.5685 38.5432 19.5621 39.7489 16.3953 41.1959L10.6629 43.8486L9.78103 42.4981C9.3 41.7747 8.05733 39.9901 7.05517 38.5432L5.21121 35.8904L6.73448 35.1187C7.53621 34.6846 10.9836 33.093 14.3509 31.5496C17.7582 30.0061 20.7647 28.4145 21.0853 28.0286C21.8871 27.1122 21.6466 25.5688 20.6444 24.7489C19.9228 24.2183 18.7203 24.6042 10.6228 28.2698ZM26.8578 56.6783C35.356 60.5368 42.4914 63.8648 42.772 64.0577C43.0526 64.2506 42.2108 65.7941 40.4069 68.3503C38.8836 70.5208 37.5207 72.2089 37.3603 72.1124C37.2 72.0159 30.4254 68.8809 22.2478 65.167C14.1103 61.4532 6.89483 58.1734 6.29353 57.8841L5.17112 57.3535L7.8569 53.495C9.3 51.3728 10.703 49.6364 10.9435 49.6364C11.1841 49.6364 18.3595 52.8197 26.8578 56.6783ZM85.1431 53.495L87.8289 57.3535L86.7065 57.8841C81.4552 60.3439 55.1586 72.2571 55.1185 72.1606C55.0784 72.1124 53.8759 70.2796 52.3927 68.1092L49.7069 64.2024L52.3927 62.9484C53.9159 62.2731 60.9711 58.9934 68.1466 55.7136C75.322 52.4339 81.4552 49.7329 81.856 49.6847C82.2168 49.6364 83.6599 51.3245 85.1431 53.495ZM20.1233 69.2185C25.6953 71.7265 31.9086 74.5722 33.8728 75.4886C39.0039 77.852 39.0841 77.8037 42.0103 73.4147L44.4957 69.749V87.8842V106.068L41.8099 104.862C40.2866 104.186 32.5099 100.617 24.4526 96.9517L9.82112 90.2957L9.70086 77.4661C9.66078 70.3761 9.70086 64.5883 9.82112 64.5883C9.90129 64.5883 14.5513 66.6622 20.1233 69.2185ZM83.2991 77.4179L83.1789 90.2957L68.7478 96.8553C60.8108 100.473 52.994 104.042 51.4306 104.765L48.5043 106.068V87.8842V69.749L50.9897 73.4147C52.9138 76.3086 53.7155 77.1285 54.4772 77.1285C55.0784 77.1285 61.6526 74.3311 69.1487 70.8584C76.6448 67.4339 82.8983 64.6365 83.0987 64.5883C83.259 64.5883 83.3392 70.3761 83.2991 77.4179Z" fill="#343472"/>
</svg>
