<svg width="150" height="143" viewBox="0 0 150 143" fill="none" xmlns="http://www.w3.org/2000/svg">
<path d="M75.3809 142.762C114.803 142.762 146.762 110.803 146.762 71.3809C146.762 31.9583 114.803 0 75.3809 0C35.9583 0 4 31.9583 4 71.3809C4 110.803 35.9583 142.762 75.3809 142.762Z" fill="#F8EDE3"/>
<path d="M110.409 120.569C113.464 120.569 115.939 118.094 115.939 115.039V32.0983C115.939 29.0433 113.464 26.5688 110.409 26.5688H43.4094C40.3544 26.5688 37.8799 29.0433 37.8799 32.0983V37.6277H32.3497C29.2947 37.6277 26.8203 40.1021 26.8203 43.1571V115.039C26.8203 118.094 29.2947 120.569 32.3497 120.569H110.409Z" fill="#292C32"/>
<path d="M43.6445 113.569V32.6277H36.3504C33.8477 32.6277 31.821 34.6544 31.821 37.1571V109.039C31.821 111.542 33.8477 113.569 36.3504 113.569H43.6445Z" fill="#FFD3B9" stroke="#292C32" stroke-width="2"/>
<path d="M42.8805 109.039C42.8805 110.799 42.1855 112.395 41.0549 113.569H114.41C116.913 113.569 118.939 111.542 118.939 109.039V26.0983C118.939 23.5955 116.913 21.5688 114.41 21.5688H47.4099C44.9072 21.5688 42.8805 23.5955 42.8805 26.0983V109.039Z" fill="white" stroke="#292C32" stroke-width="2"/>
<path d="M52.939 29.5688H108.939C110.596 29.5688 111.939 30.9119 111.939 32.5688V52.5688C111.939 54.2256 110.596 55.5688 108.939 55.5688H52.939C51.2821 55.5688 49.939 54.2256 49.939 52.5688V32.5688C49.939 30.9119 51.2821 29.5688 52.939 29.5688Z" fill="#343472"/>
<path d="M110.439 68.0688H51.439" stroke="#292C32" stroke-width="3" stroke-linecap="round"/>
<path d="M96.4395 80.0688H51.4395" stroke="#292C32" stroke-width="3" stroke-linecap="round"/>
<path d="M110.439 92.0688H51.439" stroke="#292C32" stroke-width="3" stroke-linecap="round"/>
</svg>
