<svg width="22" height="21" viewBox="0 0 22 21" fill="none" xmlns="http://www.w3.org/2000/svg">
<path d="M11.0628 5.02119C8.15119 5.02119 5.80135 7.38435 5.80135 10.3125C5.80135 13.2407 8.15119 15.6038 11.0628 15.6038C13.9745 15.6038 16.3243 13.2407 16.3243 10.3125C16.3243 7.38435 13.9745 5.02119 11.0628 5.02119ZM11.0628 13.7515C9.17988 13.7515 7.64326 12.2061 7.64326 10.3125C7.64326 8.41888 9.17988 6.87354 11.0628 6.87354C12.9458 6.87354 14.4824 8.41888 14.4824 10.3125C14.4824 12.2061 12.9458 13.7515 11.0628 13.7515ZM16.5398 3.5713C15.86 3.5713 15.311 4.1234 15.311 4.80706C15.311 5.49073 15.86 6.04282 16.5398 6.04282C17.2196 6.04282 17.7686 5.49331 17.7686 4.80706C17.7688 4.64472 17.7371 4.48394 17.6755 4.33392C17.6138 4.1839 17.5233 4.04759 17.4091 3.9328C17.295 3.818 17.1595 3.72699 17.0103 3.66496C16.8611 3.60293 16.7012 3.5711 16.5398 3.5713ZM21.319 10.3125C21.319 8.88841 21.3318 7.47722 21.2523 6.05572C21.1728 4.4046 20.7982 2.93924 19.5977 1.73186C18.3945 0.5219 16.94 0.14782 15.2982 0.0678439C13.8821 -0.012132 12.4789 0.000767367 11.0654 0.000767367C9.64934 0.000767367 8.24611 -0.012132 6.83261 0.0678439C5.19081 0.14782 3.7337 0.52448 2.53313 1.73186C1.32999 2.94182 0.958022 4.4046 0.878497 6.05572C0.798972 7.4798 0.811798 8.89099 0.811798 10.3125C0.811798 11.734 0.798972 13.1478 0.878497 14.5693C0.958022 16.2204 1.33256 17.6858 2.53313 18.8931C3.73627 20.1031 5.19081 20.4772 6.83261 20.5572C8.24867 20.6371 9.6519 20.6242 11.0654 20.6242C12.4815 20.6242 13.8847 20.6371 15.2982 20.5572C16.94 20.4772 18.3971 20.1005 19.5977 18.8931C20.8008 17.6832 21.1728 16.2204 21.2523 14.5693C21.3344 13.1478 21.319 11.7366 21.319 10.3125ZM19.0615 16.3958C18.8742 16.8654 18.6485 17.2162 18.2868 17.5774C17.9251 17.9412 17.5788 18.1682 17.1119 18.3565C15.7625 18.8957 12.5584 18.7745 11.0628 18.7745C9.56725 18.7745 6.36059 18.8957 5.01123 18.3591C4.54434 18.1708 4.19546 17.9438 3.83631 17.58C3.4746 17.2162 3.24886 16.8679 3.06159 16.3984C2.528 15.0388 2.64857 11.8166 2.64857 10.3125C2.64857 8.80844 2.528 5.5836 3.06159 4.22659C3.24886 3.75706 3.4746 3.40619 3.83631 3.04501C4.19803 2.68383 4.54434 2.45422 5.01123 2.26589C6.36059 1.72928 9.56725 1.85053 11.0628 1.85053C12.5584 1.85053 15.7651 1.72928 17.1144 2.26589C17.5813 2.45422 17.9302 2.68125 18.2894 3.04501C18.6511 3.40877 18.8768 3.75706 19.0641 4.22659C19.5977 5.5836 19.4771 8.80844 19.4771 10.3125C19.4771 11.8166 19.5977 15.0388 19.0615 16.3958Z" fill="white"/>
</svg>
