<?xml version="1.0" standalone="no"?>
<!DOCTYPE svg PUBLIC "-//W3C//DTD SVG 20010904//EN"
 "http://www.w3.org/TR/2001/REC-SVG-20010904/DTD/svg10.dtd">
<svg version="1.0" xmlns="http://www.w3.org/2000/svg"
 width="186.000000pt" height="44.000000pt" viewBox="0 0 186.000000 44.000000"
 preserveAspectRatio="xMidYMid meet">

<g transform="translate(0.000000,44.000000) scale(0.100000,-0.100000)"
fill="#000000" stroke="none">
<path d="M10 351 c0 -5 9 -11 20 -14 18 -5 20 -14 20 -82 0 -68 -2 -77 -20
-82 -40 -11 -18 -23 41 -23 37 0 58 4 54 10 -3 6 -13 10 -21 10 -10 0 -14 12
-14 40 l0 40 48 0 c55 0 72 12 72 51 0 48 -22 59 -116 59 -46 0 -84 -4 -84 -9z
m151 -27 c19 -23 -1 -48 -40 -52 -30 -3 -31 -2 -31 32 0 33 2 36 29 36 16 0
34 -7 42 -16z"/>
<path d="M413 346 c14 -11 17 -29 17 -94 0 -67 -3 -83 -17 -91 -14 -8 -5 -10
37 -10 42 0 51 2 38 10 -15 8 -18 25 -18 104 l0 95 -37 0 c-34 -1 -36 -2 -20
-14z"/>
<path d="M1560 345 c0 -9 -12 -27 -26 -40 -20 -19 -23 -25 -11 -25 13 0 17
-13 19 -61 2 -46 8 -65 21 -73 26 -17 52 4 54 45 2 28 1 30 -5 10 -15 -48 -32
-36 -32 23 0 49 2 56 20 56 11 0 20 5 20 10 0 6 -9 10 -20 10 -16 0 -20 7 -20
30 0 17 -4 30 -10 30 -5 0 -10 -7 -10 -15z"/>
<path d="M243 285 c-42 -29 -34 -112 13 -134 38 -17 70 -13 99 12 36 30 38 92
5 119 -27 22 -88 23 -117 3z m92 -59 c0 -36 -5 -52 -17 -60 -39 -24 -79 36
-59 87 9 24 16 28 43 25 32 -3 33 -4 33 -52z"/>
<path d="M510 290 c0 -5 4 -10 10 -10 15 0 71 -131 64 -152 -3 -10 -14 -23
-25 -29 -18 -9 -19 -7 -13 15 5 22 3 26 -16 26 -17 0 -21 -5 -18 -27 2 -23 9
-29 34 -31 36 -4 55 20 94 123 13 33 29 65 36 71 22 18 16 24 -21 24 -33 0
-48 -14 -24 -22 9 -3 8 -14 -2 -41 -7 -20 -16 -37 -19 -37 -4 0 -14 16 -23 35
-15 31 -15 36 -2 41 30 12 14 24 -30 24 -25 0 -45 -4 -45 -10z"/>
<path d="M720 285 c-23 -28 -4 -62 42 -77 26 -8 43 -19 43 -28 0 -23 -41 -24
-64 -1 -28 28 -31 27 -31 -11 0 -24 3 -29 11 -21 8 8 18 8 34 1 50 -23 108 19
85 61 -5 11 -24 23 -42 26 -38 8 -60 23 -52 36 8 14 50 10 64 -6 18 -22 30
-18 30 8 0 21 -5 23 -54 25 -37 2 -57 -2 -66 -13z"/>
<path d="M870 294 c0 -3 7 -12 15 -20 22 -22 19 -80 -5 -104 l-20 -20 45 0
c25 0 45 5 45 10 0 6 -4 10 -10 10 -14 0 -12 84 2 98 7 7 20 12 30 12 15 0 18
-9 18 -53 0 -29 -5 -58 -12 -65 -9 -9 -2 -12 32 -12 34 0 41 3 32 12 -17 17
-15 93 3 108 27 23 45 4 45 -48 0 -26 -5 -53 -12 -60 -9 -9 -2 -12 32 -12 34
0 41 3 32 12 -7 7 -12 32 -12 56 0 74 -29 99 -80 72 -14 -8 -25 -7 -40 2 -15
10 -27 10 -50 1 -16 -6 -30 -7 -30 -2 0 5 -13 9 -30 9 -16 0 -30 -3 -30 -6z"/>
<path d="M1190 285 c-15 -18 -6 -45 16 -45 12 0 15 6 10 26 -6 23 -4 25 21 22
20 -2 29 -9 31 -25 3 -18 -4 -24 -36 -33 -45 -11 -65 -31 -60 -56 5 -29 34
-40 69 -27 23 9 35 9 49 1 23 -15 50 5 49 36 0 19 -1 19 -12 -4 -10 -23 -11
-20 -16 35 -4 33 -10 66 -14 73 -12 17 -92 15 -107 -3z m65 -111 c-20 -15 -45
-8 -45 12 0 7 12 20 28 28 25 13 27 13 30 -7 2 -11 -4 -26 -13 -33z"/>
<path d="M1360 290 c0 -5 5 -10 10 -10 6 0 10 -25 10 -55 0 -41 -4 -56 -17
-64 -14 -8 -3 -10 42 -10 48 0 55 2 37 10 -21 8 -24 15 -22 62 2 28 2 58 1 65
-1 14 -61 17 -61 2z"/>
<path d="M1435 290 c-5 -9 -1 -10 14 -5 16 5 20 3 15 -9 -8 -21 4 -36 22 -29
26 10 13 48 -18 51 -14 2 -29 -2 -33 -8z"/>
</g>
</svg>
