<svg width="60" height="72" viewBox="0 0 60 72" fill="none" xmlns="http://www.w3.org/2000/svg">
<path d="M13.6581 0.647279C11.9525 1.49672 1.80008 11.6495 1.0691 13.1866C0.54118 14.3192 0.459961 18.1214 0.459961 40.1259V65.7708L1.39398 67.5506C1.8813 68.5214 2.97776 69.8966 3.83056 70.5438L5.41433 71.7978L29.7801 71.9191L54.1458 72L55.9327 70.9888C56.9885 70.382 58.1256 69.2494 58.7347 68.1978L59.75 66.4584V35.9596V5.42031L58.5723 3.55963C57.8007 2.34615 56.7855 1.45627 55.6078 0.849526C53.8616 8.87811e-05 53.4149 8.87811e-05 34.3284 8.87811e-05C17.5972 8.87811e-05 14.7139 0.0809876 13.6581 0.647279ZM55.6484 2.7911C58.2068 4.61132 58.1256 3.51919 58.1256 36.0405C58.1256 68.7236 58.2474 67.3483 55.5266 69.2899L54.2677 70.1798L30.5111 70.3011C7.97274 70.382 6.67323 70.3416 5.33311 69.6539C4.56153 69.209 3.50568 68.1573 3.01837 67.3079L2.08434 65.7303V40.1259V14.5619H6.75445C14.6327 14.5619 15.4855 13.7529 15.4855 6.0675V1.57761L34.8969 1.69896L54.2677 1.82031L55.6484 2.7911ZM13.8611 7.07873C13.8611 12.863 13.7799 12.9439 7.68847 12.9439H3.09958L8.17578 7.88772C10.9778 5.09671 13.3738 2.83155 13.5362 2.83155C13.7393 2.83155 13.8611 4.73267 13.8611 7.07873Z" fill="#6F7278"/>
<path d="M47.0797 26.1707L45.5772 27.6673L43.4249 26.4538L41.2726 25.2808L30.6329 25.1595C16.2571 24.9572 14.1454 25.4831 12.0337 29.6898C11.0184 31.7123 11.0184 31.7932 11.0184 43.0785C11.0184 50.7639 11.1809 54.9302 11.5057 55.8605C12.1961 57.883 13.3332 59.2178 15.2012 60.31C16.9068 61.2808 16.988 61.2808 29.0897 61.2808C40.9883 61.2808 41.3132 61.2403 42.9782 60.3504C43.9528 59.865 45.2117 58.692 45.8208 57.7617L46.9579 56.1032L47.0797 45.2628L47.2016 34.4628L50.0849 31.146L53.0087 27.8291L51.3031 26.2516C50.4097 25.3617 49.3945 24.6741 49.1102 24.6741C48.826 24.6741 47.8919 25.3617 47.0797 26.1707ZM41.5974 27.2628C44.0746 28.3954 44.1559 28.5572 42.8563 29.6898C42.0035 30.4583 41.3944 30.6606 40.704 30.4988C40.1355 30.3774 34.7344 30.2965 28.7242 30.2965L17.719 30.337L16.8256 31.3482C15.8916 32.3999 15.8916 32.5617 15.8916 43.5235V54.6471L16.9068 55.6178L17.8815 56.6291H29.0085C39.6482 56.6291 40.1761 56.5886 41.232 55.7796L42.2878 54.9707V47.4875V40.0044L43.9122 38.3055L45.5366 36.6066L45.4554 46.3954L45.3335 56.1841L43.9122 57.6403C43.1406 58.4089 41.8817 59.2583 41.0695 59.501C40.1761 59.7437 35.303 59.865 28.1963 59.7841C17.3535 59.6628 16.7038 59.6223 15.6073 58.8133C14.9982 58.3684 14.0642 57.3572 13.5768 56.6291C12.6428 55.3347 12.6428 55.0516 12.6428 43.4021C12.6428 30.6606 12.6834 30.337 14.7951 28.3954C15.323 27.8696 16.2977 27.3033 16.9474 27.101C17.5972 26.9392 23.1201 26.737 29.2115 26.737C37.9832 26.6965 40.5416 26.8179 41.5974 27.2628ZM50.1255 27.3033C50.8564 27.8291 50.1661 28.6786 40.6634 39.3976C35.0593 45.7886 30.2674 50.8853 30.0643 50.7235C29.8613 50.6021 27.8714 48.2561 25.6379 45.5055L21.5769 40.4898L22.1861 39.074L22.7952 37.6179L26.3282 40.2066C28.9679 42.1482 30.0237 42.7145 30.4704 42.4718C30.8359 42.2696 35.1405 38.6291 40.0137 34.3819C44.8868 30.1752 49.029 26.6965 49.1508 26.6965C49.2727 26.6965 49.7194 26.9797 50.1255 27.3033ZM39.6482 31.9145C39.77 32.1168 37.6583 34.2201 34.9781 36.6066L30.0643 40.9347L27.9526 39.4785C26.775 38.6291 25.0693 37.4156 24.1353 36.728C23.2419 36.0808 22.2673 35.5954 22.0642 35.7572C21.8612 35.8785 21.2927 37.092 20.7647 38.4269L19.8713 40.8134L24.6633 46.8808C27.3435 50.1976 29.6988 53.0291 29.9831 53.1504C30.2674 53.2718 32.6633 50.9257 35.4654 47.7302C38.2269 44.6156 40.5416 42.0673 40.6634 42.0673C40.9477 42.0673 40.7853 54.0808 40.4604 54.5662C40.0949 55.2134 18.653 55.1729 18.0033 54.5257C17.3129 53.8381 17.3129 32.7235 18.0033 32.0359C18.6124 31.4291 39.2827 31.3482 39.6482 31.9145Z" fill="#6F7278"/>
</svg>
