<svg width="48" height="48" viewBox="0 0 48 48" fill="none" xmlns="http://www.w3.org/2000/svg">
<g clip-path="url(#clip0_613_338)">
<path d="M8.20448 9.79553H20.0626C21.3232 9.79553 22.3452 10.8175 22.3452 12.0781V31.3255C22.3452 32.5862 21.3232 33.6081 20.0626 33.6081H8.20448C6.94383 33.6081 5.92188 32.5862 5.92188 31.3255V12.0781C5.92188 10.8175 6.94383 9.79553 8.20448 9.79553Z" fill="#0000FF" stroke="#0000FF"/>
<path opacity="0.32" d="M27.9374 9.79553H39.7955C41.0561 9.79553 42.0781 10.8175 42.0781 12.0781V31.3255C42.0781 32.5862 41.0561 33.6081 39.7955 33.6081H27.9374C26.6767 33.6081 25.6548 32.5862 25.6548 31.3255V12.0781C25.6548 10.8175 26.6767 9.79553 27.9374 9.79553Z" fill="#0000FF" stroke="#0000FF"/>
<path opacity="0.3" d="M14.5742 33.7753V36.2696C14.5742 37.6143 15.6643 38.7044 17.009 38.7044H31.2579C32.6025 38.7044 33.6927 37.6143 33.6927 36.2696V33.7753" stroke="#0000FF" stroke-width="3" stroke-linecap="round"/>
<path d="M35.934 34.1081C35.934 35.2499 35.0084 36.1754 33.8667 36.1754C32.7249 36.1754 31.7993 35.2499 31.7993 34.1081C31.7993 32.9663 32.7249 32.0408 33.8667 32.0408C35.0084 32.0408 35.934 32.9663 35.934 34.1081Z" fill="#0000FF" stroke="#0000FF"/>
<path d="M16.2011 34.1081C16.2011 35.2499 15.2755 36.1754 14.1337 36.1754C12.992 36.1754 12.0664 35.2499 12.0664 34.1081C12.0664 32.9663 12.992 32.0408 14.1337 32.0408C15.2755 32.0408 16.2011 32.9663 16.2011 34.1081Z" fill="white" stroke="#0000FF"/>
<path opacity="0.5" d="M8.42954 13.0732H19.8375C19.9456 13.0732 20.0332 13.1608 20.0332 13.2689V15.3796C20.0332 15.4877 19.9456 15.5753 19.8375 15.5753H8.42954C8.32148 15.5753 8.23389 15.4877 8.23389 15.3796V13.2689C8.23389 13.1608 8.32148 13.0732 8.42954 13.0732Z" fill="white" stroke="#0000FF"/>
<path opacity="0.6" d="M28.1624 13.0732H39.5704C39.6785 13.0732 39.7661 13.1608 39.7661 13.2689V15.3796C39.7661 15.4877 39.6785 15.5753 39.5704 15.5753H28.1624C28.0544 15.5753 27.9668 15.4877 27.9668 15.3796V13.2689C27.9668 13.1608 28.0544 13.0732 28.1624 13.0732Z" fill="#0000FF" stroke="#0000FF"/>
<path opacity="0.5" d="M8.42954 18.0493H19.8375C19.9456 18.0493 20.0332 18.1369 20.0332 18.2449V20.3557C20.0332 20.4637 19.9456 20.5513 19.8375 20.5513H8.42954C8.32148 20.5513 8.23389 20.4637 8.23389 20.3557V18.2449C8.23389 18.1369 8.32148 18.0493 8.42954 18.0493Z" fill="white" stroke="#0000FF"/>
<path opacity="0.5" d="M8.42954 23.0791H19.8375C19.9456 23.0791 20.0332 23.1667 20.0332 23.2748V25.3855C20.0332 25.4936 19.9456 25.5812 19.8375 25.5812H8.42954C8.32148 25.5812 8.23389 25.4936 8.23389 25.3855V23.2748C8.23389 23.1667 8.32148 23.0791 8.42954 23.0791Z" fill="white" stroke="#0000FF"/>
<path opacity="0.6" d="M28.1624 18.0493H39.5704C39.6785 18.0493 39.7661 18.1369 39.7661 18.2449V20.3557C39.7661 20.4637 39.6785 20.5513 39.5704 20.5513H28.1624C28.0544 20.5513 27.9668 20.4637 27.9668 20.3557V18.2449C27.9668 18.1369 28.0544 18.0493 28.1624 18.0493Z" fill="#0000FF" stroke="#0000FF"/>
<path opacity="0.6" d="M28.1624 23.0791H39.5704C39.6785 23.0791 39.7661 23.1667 39.7661 23.2748V25.3855C39.7661 25.4936 39.6785 25.5812 39.5704 25.5812H28.1624C28.0544 25.5812 27.9668 25.4936 27.9668 25.3855V23.2748C27.9668 23.1667 28.0544 23.0791 28.1624 23.0791Z" fill="#0000FF" stroke="#0000FF"/>
<path opacity="0.1" d="M48 0H0V48H48V0Z" fill="#343472"/>
</g>
<defs>
<clipPath id="clip0_613_338">
<path d="M0 10C0 4.47715 4.47715 0 10 0H38C43.5228 0 48 4.47715 48 10V38C48 43.5228 43.5228 48 38 48H10C4.47715 48 0 43.5228 0 38V10Z" fill="white"/>
</clipPath>
</defs>
</svg>
