<svg width="303" height="415" viewBox="0 0 303 415" fill="none" xmlns="http://www.w3.org/2000/svg">
<g clip-path="url(#clip0_297_231)">
<g opacity="0.2">
<path d="M74.825 69.0294C88.619 80.1518 96.564 99.1048 96.113 119.775C95.902 129.716 93.716 139.534 91.646 148.999C91.043 151.655 90.493 154.356 89.944 157.056C84.124 185.417 82.971 214.351 86.418 243.079C87.968 256.304 91.216 262.553 95.705 271.199C97.536 274.722 99.614 278.814 101.874 283.872C104.257 289.214 106.843 294.637 109.315 299.873C113.398 308.357 117.656 317.17 121.046 326.157C130.136 349.775 134.427 375.237 138.499 399.883C139.045 403.322 139.645 406.806 140.245 410.291C139.331 410.518 138.418 410.745 137.496 410.875C136.888 407.293 136.288 403.809 135.689 400.325C131.634 375.874 127.405 350.554 118.437 327.221C115.012 318.384 110.806 309.616 106.724 301.131C104.252 295.895 101.568 290.481 99.229 285.086C97.022 280.072 94.953 276.078 93.122 272.554C88.51 263.625 85.245 257.181 83.554 243.477C80.082 214.456 81.307 185.221 87.101 156.568C87.651 153.868 88.253 151.212 88.848 148.458C90.926 139.091 93.024 129.378 93.26 119.73C93.735 99.8925 86.159 81.7915 73.001 71.2029C70.942 69.5656 68.706 68.1404 66.513 66.6621L64.692 65.4951C51.245 56.6511 39.046 45.7822 27.368 35.2606C21.291 29.7997 15.001 24.1609 8.551 18.9291C9.447 18.5068 10.388 18.0315 11.39 17.6982C17.531 22.7607 23.449 28.0881 29.253 33.2291C40.923 43.6532 53.016 54.4331 66.312 63.2412L68.133 64.4082C70.37 65.8334 72.66 67.3031 74.825 69.0294Z" fill="#EACDC1"/>
<path d="M61.856 86.4232C71.24 104.415 75.188 123.718 73.839 145.35C73.053 157.699 71.453 169.726 69.818 181.363C66.902 202.494 64.132 222.483 66.308 244.544C68.098 262.758 77.1 275.823 86.605 289.58C89.471 293.701 92.398 297.964 95.2 302.483C109.01 324.46 115.284 350.141 119.186 370.037C120.145 374.816 121.059 379.648 122.026 384.525C123.82 393.799 125.63 403.268 127.628 412.622C126.706 412.752 125.784 412.882 124.862 413.012C122.865 403.657 121.062 394.286 119.269 385.011C118.355 380.179 117.441 375.347 116.482 370.568C112.597 350.867 106.454 325.567 92.874 303.964C90.08 299.542 87.153 295.279 84.34 291.203C74.606 277.072 65.436 263.777 63.586 244.88C61.43 222.474 64.138 202.343 67.135 181.009C68.725 169.425 70.386 157.539 71.128 145.244C72.423 124.107 68.614 105.283 59.468 87.762C49.608 68.8292 35.666 59.9302 18.036 48.7505L14.137 46.2917C5.711 40.938 -2.412 35.1157 -10.232 28.8248C-9.397 28.2606 -8.554 27.7938 -7.711 27.3271C-0.216999 33.2536 7.535 38.7645 15.553 43.9574L19.453 46.4162C37.445 57.8098 51.644 66.8335 61.856 86.4232Z" fill="#EACDC1"/>
<path d="M107.791 59.5635C123.195 73.9343 130.331 96.5438 125.946 117.165C124.631 123.469 122.36 129.513 120.071 135.362C119.428 136.99 118.837 138.663 118.194 140.291C104.475 177.742 101.633 218.809 109.923 259.099C113.584 276.806 121.279 294.013 128.674 310.607C133.255 320.865 137.96 331.407 141.69 342.035C147.569 358.712 149.077 376.509 150.481 393.677C150.873 398.161 151.23 402.797 151.675 407.326C150.762 407.553 149.902 407.825 148.988 408.052C148.473 403.283 148.063 398.604 147.654 393.924C146.214 376.907 144.776 359.35 139.019 342.956C135.351 332.47 130.647 321.928 126.118 311.714C118.661 294.978 110.905 277.63 107.174 259.684C98.744 218.915 101.641 177.351 115.61 139.387C116.2 137.715 116.844 136.086 117.487 134.458C119.686 128.715 121.913 122.724 123.201 116.668C127.325 97.0032 120.523 75.396 105.808 61.6035C97.788 54.1512 87.909 49.0229 78.294 44.117C74.897 42.3511 71.351 40.5493 67.946 38.6859C60.924 34.7812 54.613 30.0283 48.365 25.4174C44.476 22.5157 40.481 19.5251 36.414 16.8354C33.497 14.9294 30.774 13.0062 28.052 11.0831C29.152 10.7413 30.252 10.3995 31.299 10.0132C33.446 11.5445 35.639 13.0228 37.929 14.4925C42.101 17.2711 46.096 20.2618 49.985 23.1635C56.128 27.6854 62.438 32.4384 69.203 36.2182C72.564 38.1346 76.058 39.8919 79.499 41.6048C89.37 46.6356 99.453 51.8443 107.791 59.5635Z" fill="#EACDC1"/>
<path d="M156.188 93.9376C156.944 108.755 152.646 124.751 143.813 140.014C142.28 142.703 140.819 145.09 139.402 147.425C132.746 158.371 127.944 166.356 127.025 181.123C126.033 196.732 126.103 212.69 127.281 228.403C129.745 262.179 138.139 300.299 151 335.571C152.887 340.859 155.075 346.218 157.149 351.39C161.604 362.446 166.243 373.927 168.905 385.827C170.022 390.739 170.856 395.775 171.441 400.783C170.59 401.152 169.685 401.477 168.78 401.802C168.177 396.599 167.38 391.412 166.254 386.402C163.564 374.751 159.031 363.358 154.638 352.445C152.564 347.273 150.376 341.913 148.436 336.582C135.55 301.016 127.041 262.71 124.551 228.642C123.409 212.778 123.331 196.723 124.314 181.016C125.27 165.558 130.207 157.414 137.077 146.105C138.449 143.824 139.954 141.384 141.443 138.748C150.017 123.901 154.172 108.506 153.414 94.2295C152.566 77.7994 145.023 62.8882 133.162 54.2002C126.233 49.1085 117.87 46.156 109.754 43.2311C108.232 42.6766 106.71 42.1222 105.188 41.5677C82.657 33.3219 61.29 21.5358 41.989 6.96573C43.142 6.66839 44.241 6.32659 45.447 6.07373C64.096 19.915 84.623 31.0868 106.189 38.9749C107.711 39.5295 109.234 40.0839 110.756 40.6384C119.021 43.5993 127.641 46.6766 134.88 51.9377C147.316 61.0175 155.37 76.719 156.188 93.9376Z" fill="#EACDC1"/>
<path d="M168.377 55.8347C174.951 66.4098 175.634 79.2687 176.242 90.7096C177.186 107.672 177.228 123.878 168.095 136.269C165.683 139.575 162.732 142.338 159.825 145.048C157.194 147.538 154.474 150.134 152.222 153.032C140.723 168.136 143.502 184.741 146.517 202.357C146.987 204.919 147.404 207.437 147.776 210.008C148.504 214.954 149.426 219.884 150.251 224.822C152.728 239.096 155.3 253.901 155.189 268.352L155.213 269.185C155.074 283.884 154.934 299.124 157.543 313.779C159.647 325.482 164.69 335.405 169.98 345.896C171.283 348.435 172.532 350.929 173.791 353.52C180.073 366.38 184.36 380.005 187.654 393.519C186.811 393.986 185.959 394.355 185.063 394.777C181.813 381.21 177.526 367.586 171.297 354.77C170.091 352.223 168.789 349.684 167.539 347.19C162.135 336.513 156.977 326.403 154.838 314.31C152.16 299.416 152.292 284.079 152.466 269.229L152.442 268.396C152.579 254.238 150.015 239.53 147.547 225.353C146.669 220.371 145.791 215.388 145.063 210.442C144.647 207.924 144.274 205.353 143.804 202.791C140.86 185.414 137.811 167.408 150.111 151.351C152.442 148.248 155.305 145.591 158.025 142.996C160.789 140.347 163.696 137.636 165.93 134.543C174.538 122.885 174.441 107.175 173.593 90.7449C173.019 79.694 172.317 67.1807 166.139 57.2094C157.9 43.8819 142.06 37.998 126.724 32.2664L123.574 31.0683C102.849 23.2539 82.946 13.5995 64.112 2.1322C65.566 1.90676 67.02 1.68122 68.429 1.50879C86.256 12.1309 105.072 21.1439 124.575 28.4757L127.672 29.6291C143.282 35.6806 159.574 41.6724 168.377 55.8347Z" fill="#EACDC1"/>
<path d="M-12.6258 90.1397C-1.262 104.373 8.413 117.82 10.903 138.429C12.773 154.181 13.019 170.467 13.222 186.266C13.498 206.823 13.78 228.018 17.85 248.145C22.512 271.119 33.613 292.448 44.414 313.165C48.006 319.973 51.721 327.065 55.091 334.138C67.136 358.971 74.747 385.321 82.183 410.802C82.542 412.097 82.954 413.437 83.321 414.829C82.382 414.764 81.346 414.707 80.407 414.642C80.073 413.639 79.837 412.629 79.504 411.626C72.13 386.287 64.581 360.079 52.597 335.388C49.183 328.368 45.521 321.32 41.929 314.512C31.066 293.653 19.851 272.137 15.057 248.783C10.97 228.461 10.67 207.07 10.386 186.416C10.191 170.714 9.945 154.428 7.996 138.88C5.564 118.954 -3.836 105.826 -14.9181 92.0103C-21.3678 83.9786 -34.2716 71.7959 -41.5514 73.3661C-42.7572 73.619 -43.734 74.2447 -44.6237 75.305C-45.5578 76.4182 -46.2988 78.0549 -46.8996 80.1705C-47.8155 83.7382 -47.1647 87.8073 -46.6627 91.3L-38.5092 142.949C-37.2778 150.848 -37.3583 158.91 -37.3669 166.672C-37.4645 174.54 -37.492 182.647 -36.2161 190.493C-33.4304 207.736 -28.0343 223.375 -19.9729 236.915C-6.362 259.989 12.436 295.185 18.595 334.139C21.032 349.644 21.447 365.621 21.909 381.004C22.075 386.835 22.188 392.621 22.346 398.354C22.404 399.577 22.409 400.756 22.414 401.934C21.449 401.576 20.538 401.263 19.617 400.852C19.594 400.019 19.57 399.186 19.546 398.354C19.388 392.62 19.275 386.834 19.162 381.048C18.753 365.709 18.249 349.838 15.873 334.475C9.802 295.956 -8.82 261.089 -22.414 238.209C-30.5539 224.333 -36.1706 208.418 -38.9904 190.785C-40.2919 182.646 -40.1754 174.433 -40.1309 166.521C-40.0692 158.804 -40.0246 150.891 -41.1859 143.232L-49.3395 91.5834C-49.9647 87.8067 -50.641 83.445 -49.5813 79.2754C-48.2529 74.2471 -45.7619 71.2785 -42.1442 70.5199C-30.4754 68.0254 -12.7933 89.9087 -12.6258 90.1397Z" fill="#EACDC1"/>
<path d="M-63.5981 74.0181C-56.8926 100.693 -53.1668 128.12 -52.6224 155.678C-52.5481 159.895 -52.5628 164.219 -52.6579 168.747C-52.8341 184.137 -53.0652 200.023 -47.8038 213.562C-44.5713 221.875 -38.8211 229.771 -33.141 237.428C-29.1194 242.971 -24.8858 248.691 -21.6186 254.595C-13.7199 269.082 -7.01 284.017 -1.771 298.982C5.951 321 9.56 346.521 8.859 372.764C8.638 380.348 8.329 388.037 8.011 395.63C7.091 395.219 6.215 394.755 5.295 394.345C5.603 387.195 5.849 379.904 6.104 372.71C6.883 346.805 3.256 321.629 -4.344 299.895C-9.521 285.071 -16.1165 270.323 -24.0066 255.933C-27.1593 250.217 -31.2868 244.585 -35.3084 239.042C-41.0501 231.243 -46.9594 223.214 -50.2704 214.563C-55.725 200.501 -55.5195 184.323 -55.3158 168.685C-55.2652 164.21 -55.1975 159.931 -55.2718 155.713C-55.8369 129.041 -59.3354 102.528 -65.7246 76.6601C-65.1104 75.8205 -64.3543 74.9193 -63.5981 74.0181Z" fill="#EACDC1"/>
<path d="M99.942 415.045C97.069 397.367 92.573 375.166 83.412 354.109C76.659 338.686 68.29 324.437 60.159 310.658C42.979 281.608 26.822 254.139 26.697 217.899C26.658 208.472 27.232 198.745 27.843 188.327C29.95 152.334 32.194 115.101 8.746 87.3862C1.297 78.6068 -7.511 71.1251 -16.0015 63.9105C-21.7353 59.0089 -27.7257 53.9824 -33.1566 48.6123C-33.8543 47.9365 -34.5605 47.1633 -35.3283 46.248C-36.0126 46.8482 -36.7498 47.4039 -37.4341 48.0041C-36.6133 48.9638 -35.8456 49.879 -35.0949 50.5993C-29.5579 56.0584 -23.6121 61.1379 -17.7808 66.0309C-9.343 73.2011 -0.587997 80.6383 6.648 89.2397C29.435 116.128 27.237 152.768 25.132 188.22C24.521 198.638 23.903 208.418 23.995 217.89C24.135 254.865 40.513 282.61 57.824 312.041C65.947 325.722 74.263 339.927 80.953 355.208C89.921 375.741 94.384 397.553 97.195 415.089L99.942 415.045Z" fill="#EACDC1"/>
<path d="M109.38 414.563C108.755 410.786 108.236 407.099 107.664 403.366C104.58 382.711 101.338 361.382 93.804 341.509C91.301 334.802 88.058 326.932 83.307 319.783C80.239 315.041 76.462 310.607 72.799 306.359C45.106 273.907 34.211 233.599 40.316 186.597C41.025 181.23 41.912 175.651 42.825 170.364C45.566 153.964 48.308 137.023 45.502 120.666C39.87 88.2977 15.301 69.6694 -10.699 49.84C-15.5422 46.1377 -20.4382 42.3908 -25.2452 38.5379C-24.4104 37.9737 -23.6731 37.418 -22.8828 36.9067C-18.3408 40.5372 -13.6569 44.1061 -9.026 47.6306C16.285 66.8817 42.444 86.8445 48.259 120.179C51.205 137.015 48.338 154.213 45.615 170.808C44.702 176.095 43.806 181.576 43.097 186.943C37.066 233.103 47.803 272.737 74.95 304.55C78.621 308.895 82.398 313.329 85.625 318.205C90.544 325.584 93.848 333.597 96.412 340.445C104.07 360.602 107.329 382.127 110.377 402.933C110.957 406.762 111.485 410.547 112.163 414.369L109.38 414.563Z" fill="#EACDC1"/>
<path d="M177.555 34.9908C182.783 40.2805 185.358 48.9459 187.645 56.556C188.267 58.6137 188.836 60.6269 189.486 62.4366C192.591 71.5468 195.94 82.306 197.177 93.6427C199.026 110.28 195.801 125.642 188.029 136.735C184.538 141.756 180.314 146.252 176.224 150.589C164.992 162.574 155.29 172.952 162.044 190.634C176.271 228.047 182.458 269.012 179.913 308.973L179.789 311.489C179.324 317.964 178.921 324.582 180.157 330.859C181.377 336.941 184.246 342.781 186.992 348.337L188.188 350.787C193.591 362.005 198.247 373.681 201.945 385.637C201.102 386.104 200.312 386.615 199.468 387.082C195.761 375.028 191.141 363.202 185.686 351.939L184.489 349.49C181.629 343.747 178.699 337.765 177.445 331.293C176.076 324.634 176.56 317.813 176.963 311.196L177.132 308.627C179.614 269.064 173.469 228.587 159.418 191.502C152.077 172.153 162.863 160.697 174.184 148.606C178.185 144.375 182.365 139.933 185.722 135.071C193.094 124.454 196.139 109.845 194.394 93.8371C193.182 82.7929 189.896 72.1757 186.807 63.2605C186.158 61.4507 185.535 59.3929 184.958 57.2822C182.75 50.0091 180.253 41.6808 175.511 36.8889C162.742 24.0067 142.009 16.0948 125.293 9.7472L123.665 9.10375C118.94 7.30676 113.966 5.48237 108.745 3.63054C105.347 2.40513 101.895 1.13518 98.391 -0.179199C101.342 -0.142605 104.292 -0.105957 107.259 0.125624C108.074 0.447363 108.888 0.769072 109.746 1.0378C115.021 2.93411 119.994 4.7585 124.772 6.59997L126.401 7.24342C143.275 13.7245 164.363 21.7528 177.555 34.9908Z" fill="#EACDC1"/>
<path d="M197.757 26.7395C199.768 29.5107 201.601 32.4942 203.264 35.787C210.306 49.4649 213.824 64.9737 216.57 78.3889C219.377 91.946 221.968 106.406 220.068 120.621C218.022 135.978 210.706 148.358 198.938 156.46L198.61 156.636C187.304 164.404 179.196 169.977 177.968 184.574C177.043 195.904 180.612 206.938 184.596 218.231L186.808 224.423C195.165 247.515 203.74 271.423 201.326 296.047C200.833 300.511 200.091 304.948 199.244 309.295C198.079 315.636 196.887 322.224 196.918 328.754C197.02 345.642 205.03 361.397 212.802 376.681C213.039 377.151 213.33 377.666 213.523 378.19C212.786 378.745 211.996 379.257 211.205 379.768C210.906 379.155 210.607 378.543 210.308 377.931C202.368 362.416 194.183 346.333 194.118 328.753C194.07 322.028 195.298 315.289 196.454 308.852C197.213 304.61 198.052 300.165 198.457 295.807C200.833 271.874 192.283 248.259 184.093 225.398L181.882 219.205C177.721 207.584 174.074 196.213 175.151 184.379C176.463 168.496 185.503 162.351 196.943 154.425L197.218 154.204C208.337 146.551 215.271 134.843 217.19 120.283C219.026 106.467 216.46 92.2994 213.723 78.9817C210.942 65.7171 207.449 50.5007 200.628 37.0982C197.961 31.8792 194.866 27.3853 191.477 23.4575C191.583 23.5464 191.734 23.5825 191.84 23.6714L197.757 26.7395Z" fill="#EACDC1"/>
<path d="M220.956 42.0492C232.343 67.7743 237.741 90.7323 237.394 112.032C236.974 134.173 230.6 150.596 217.872 162.319C216.006 164.005 213.989 165.655 212.017 167.252C206.464 171.717 201.284 175.953 198.729 182.12C195.977 188.844 197.236 196.495 198.813 204.413C202.769 223.813 207.523 243.34 212.828 262.425L213.17 263.525C215.586 272.057 218.02 280.784 217.679 289.803C217.543 293.302 217 296.641 216.457 299.98C216.041 302.521 215.633 305.16 215.421 307.782C213.689 327.287 223.16 345.713 232.625 363.502C231.94 364.102 231.212 364.755 230.474 365.311C220.666 346.963 210.807 328.03 212.648 307.533C212.905 304.858 213.304 302.122 213.765 299.527C214.317 296.286 214.86 292.948 214.968 289.696C215.298 281.121 212.882 272.589 210.535 264.296L210.238 263.143C204.783 244.022 200.074 224.442 196.108 204.944C194.4 196.645 193.151 188.551 196.136 181.118C198.932 174.341 204.663 169.664 210.261 165.147C212.188 163.603 214.205 161.953 216.027 160.32C228.168 149.188 234.256 133.428 234.647 112.075C235.024 89.9876 229.044 65.9998 216.449 38.8086L216.555 38.8976L220.956 42.0492Z" fill="#EACDC1"/>
<path d="M235.852 54.5488L240.569 59.0481C246.823 74.9561 252.341 91.4199 253.85 108.676C256.061 133.387 248.915 155.576 234.364 169.473C233.004 170.77 231.591 172.024 230.124 173.233C226.606 176.242 223.273 179.137 221.001 182.922C214.781 193.241 218.55 202.637 222.513 212.556C223.831 215.83 225.21 219.246 226.253 222.741C231.412 240.169 233.717 258.093 233.08 276.077C232.936 279.479 232.739 282.837 232.497 286.247C232.047 293.458 231.525 300.97 232.112 308.237C233.364 323.11 239.067 337.199 245.559 350.778C244.937 351.52 244.163 352.226 243.488 352.924C236.749 338.777 230.605 324.137 229.329 308.432C228.725 300.969 229.238 293.36 229.68 286.051C229.877 282.694 230.075 279.337 230.272 275.979C230.935 258.287 228.655 240.656 223.521 223.52C222.54 220.167 221.169 216.849 219.851 213.575C215.774 203.469 211.513 192.937 218.471 181.522C220.958 177.375 224.61 174.206 228.129 171.197C229.498 169.997 230.964 168.788 232.279 167.543C246.289 154.184 253.068 132.863 250.934 109.03C249.466 90.0013 242.828 71.9655 235.852 54.5488Z" fill="#EACDC1"/>
<path d="M258.346 78.6636L262.898 84.6511C265.102 93.0051 266.917 101.393 267.907 109.902C270.888 134.988 265.084 158.484 251.873 174.228C250.502 175.969 248.973 177.576 247.497 179.228C241.004 186.428 234.333 193.839 235.597 202.668C236.169 206.4 238.195 209.907 240.213 213.316L241.129 214.808C253.285 235.849 258.044 261.613 254.1 285.585C253.648 288.277 253.107 291.075 252.504 293.731C251.162 300.283 249.792 307.084 250.079 313.739C250.431 322.255 253.452 330.39 257.112 337.978C256.489 338.72 255.822 339.516 255.155 340.311C251.098 332.119 247.672 323.282 247.288 313.836C246.966 306.791 248.417 299.787 249.795 293.084C250.345 290.384 250.894 287.683 251.346 284.991C255.2 261.666 250.643 236.522 238.733 216.049L237.869 214.602C235.737 211.006 233.544 207.269 232.92 202.951C231.448 192.863 238.617 184.966 245.509 177.29C246.986 175.638 248.418 174.039 249.797 172.396C262.519 157.235 268.098 134.544 265.177 110.141C263.911 99.5932 261.518 89.0943 258.346 78.6636Z" fill="#EACDC1"/>
<path d="M275.435 103.841L279.362 111.111C279.977 115.331 280.494 119.559 280.958 123.743C282.53 138.341 277.124 156.841 265.036 178.676C264.313 179.968 263.591 181.259 262.78 182.656C259.572 188.094 255.936 194.258 255.305 199.962C254.675 205.666 257.078 212.922 259.209 219.317C259.946 221.562 260.674 223.708 261.19 225.677L261.899 228.169C266.679 245.189 271.608 262.784 268.809 280.762C268.366 283.551 267.727 286.358 267.177 289.058C266.26 293.167 265.315 297.523 265.043 301.722C264.674 308.729 266.148 315.477 268.678 321.936C268.073 322.873 267.467 323.81 266.808 324.703C263.803 317.303 261.906 309.659 262.324 301.518C262.569 297.026 263.559 292.617 264.513 288.358C265.115 285.702 265.71 282.949 266.064 280.265C268.719 262.89 263.914 245.578 259.212 228.895L258.503 226.403C257.942 224.488 257.267 222.385 256.486 220.194C254.285 213.559 251.758 206.019 252.48 199.669C253.157 193.371 256.918 186.951 260.304 181.301C261.071 179.957 261.89 178.657 262.568 177.419C274.407 156.096 279.669 138.198 278.148 124.185C277.559 117.458 276.625 110.712 275.435 103.841Z" fill="#EACDC1"/>
<path d="M283.008 296.564C282.321 290.386 282.438 284.432 282.636 278.275C282.731 273.747 282.862 269.069 282.64 264.275C281.785 247.207 278.934 230.903 274.121 215.753C273.841 214.795 273.454 213.748 273.121 212.746C270.805 205.924 268.262 198.189 270.979 191.075C272.624 186.854 275.358 182.734 278.003 178.72C279.821 175.909 281.557 173.301 282.948 170.674C287.996 160.998 290.786 150.783 291.966 140.119C292.632 142.123 293.299 144.128 293.921 146.186C292.438 155.059 289.706 163.697 285.416 171.932C283.989 174.709 282.119 177.476 280.346 180.235C277.79 184.142 275.145 188.156 273.625 192.12C271.265 198.27 273.668 205.526 275.844 211.869C276.23 212.916 276.564 213.918 276.897 214.921C281.825 230.257 284.701 246.854 285.573 264.117C285.804 269.008 285.682 273.784 285.542 278.364C285.439 282.794 285.318 287.029 285.551 291.38L283.008 296.564Z" fill="#EACDC1"/>
<path d="M299.523 245.557C297.938 237.542 295.918 229.614 293.419 221.826L292.534 219.005C290.254 212.033 287.957 204.866 288.133 197.335C288.416 187.093 292.364 177.759 296.195 168.779C296.883 167.098 297.571 165.416 298.304 163.682C298.688 165.269 298.975 166.865 299.315 168.506C299.154 168.913 298.949 169.373 298.788 169.78C295.037 178.557 291.214 187.635 290.933 197.336C290.758 204.326 292.994 211.351 295.204 218.084L296.089 220.904C297.913 226.59 299.444 232.301 300.789 238.127L299.523 245.557Z" fill="#EACDC1"/>
<path d="M53.745 375.468L54.042 376.621C57.438 389.046 60.941 401.019 64.472 412.745C63.48 412.635 62.48 412.428 61.479 412.221C58.036 400.93 54.708 389.285 51.4 377.294L51.049 376.097C45.712 356.08 41.528 351.485 38.942 351.122C37.055 350.894 35.16 353.369 34.018 355.483C31.933 359.153 32.325 363.637 32.972 368.787L37.982 406.958C37.026 406.697 36.069 406.437 35.06 406.133L30.206 369.177C29.636 364.904 28.868 358.93 31.595 354.172C33.984 350.033 36.613 348.084 39.341 348.386C45.904 349.285 50.472 363.327 53.745 375.468Z" fill="#EACDC1"/>
</g>
</g>
<defs>
<clipPath id="clip0_297_231">
<rect width="415" height="415" fill="white" transform="translate(-112)"/>
</clipPath>
</defs>
</svg>
