<svg width="21" height="21" viewBox="0 0 21 21" fill="none" xmlns="http://www.w3.org/2000/svg">
<path d="M6.5094 20.4056C8.08407 20.4175 9.64503 20.0535 11.1018 19.3347C12.5585 18.6159 13.882 17.5566 14.9954 16.2183C16.1089 14.88 16.9902 13.2892 17.5883 11.5383C18.1863 9.78747 18.4892 7.9113 18.4793 6.01865V5.35757C19.2955 4.63878 20.002 3.75548 20.5675 2.74686C19.7988 3.1509 18.9856 3.41887 18.153 3.5424C19.0357 2.91021 19.6981 1.9151 20.0174 0.741209C19.1948 1.33444 18.2926 1.75147 17.3513 1.97373C16.7173 1.1618 15.8783 0.623622 14.9642 0.442474C14.0502 0.261327 13.1119 0.447308 12.2946 0.97164C11.4773 1.49597 10.8266 2.32943 10.443 3.34304C10.0595 4.35666 9.96466 5.49393 10.1731 6.57889C8.50067 6.48023 6.86431 5.95929 5.37054 5.05001C3.87677 4.14073 2.5591 2.86348 1.50331 1.30145C0.970933 2.41204 0.809567 3.72428 1.05188 4.97249C1.2942 6.2207 1.9221 7.3116 2.80843 8.02431C2.15458 7.994 1.51585 7.77904 0.94397 7.39684V7.45287C0.93816 8.61349 1.26347 9.74146 1.86567 10.6488C2.46788 11.5561 3.3106 12.1879 4.25339 12.439C3.64524 12.6356 3.0082 12.6662 2.38893 12.5286C2.66187 13.5184 3.1829 14.3825 3.88054 15.0024C4.57819 15.6223 5.4183 15.9675 6.28566 15.9909C4.80268 17.4257 2.95954 18.2155 1.05584 18.2319C0.722055 18.2202 0.389056 18.1866 0.0583496 18.131C1.98523 19.6066 4.22469 20.3845 6.5094 20.372" fill="white"/>
</svg>
