<svg width="122" height="137" viewBox="0 0 122 137" fill="none" xmlns="http://www.w3.org/2000/svg">
<path d="M60 129C93.1371 129 120 102.137 120 69C120 35.8629 93.1371 9 60 9C26.8629 9 0 35.8629 0 69C0 102.137 26.8629 129 60 129Z" fill="#F8EDE3"/>
<path d="M109.706 25.8862H6.67188C3.91045 25.8862 1.67188 28.1248 1.67188 30.8862V112.083C1.67188 114.845 3.91045 117.083 6.67188 117.083H109.706C112.467 117.083 114.706 114.845 114.706 112.083V30.8862C114.706 28.1248 112.467 25.8862 109.706 25.8862Z" fill="#292C32" stroke="#292C32" stroke-width="2"/>
<path d="M115.706 20.8862H12.6719C9.91045 20.8862 7.67188 23.1248 7.67188 25.8862V107.083C7.67188 109.845 9.91045 112.083 12.6719 112.083H115.706C118.467 112.083 120.706 109.845 120.706 107.083V25.8862C120.706 23.1248 118.467 20.8862 115.706 20.8862Z" fill="white" stroke="#292C32" stroke-width="2"/>
<path d="M37.4864 87.0049H24.2031C23.6508 87.0049 23.2031 87.4526 23.2031 88.0049V100.055C23.2031 100.607 23.6508 101.055 24.2031 101.055H37.4864C38.0387 101.055 38.4864 100.607 38.4864 100.055V88.0049C38.4864 87.4526 38.0387 87.0049 37.4864 87.0049Z" fill="#FFD3B9"/>
<path d="M59.7169 78.251H46.4336C45.8813 78.251 45.4336 78.6987 45.4336 79.251V100.055C45.4336 100.607 45.8813 101.055 46.4336 101.055H59.7169C60.2692 101.055 60.7169 100.607 60.7169 100.055V79.251C60.7169 78.6987 60.2692 78.251 59.7169 78.251Z" fill="#FFD3B9"/>
<path d="M81.9474 63.2485H68.6641C68.1118 63.2485 67.6641 63.6962 67.6641 64.2485V100.056C67.6641 100.608 68.1118 101.056 68.6641 101.056H81.9474C82.4997 101.056 82.9474 100.608 82.9474 100.056V64.2485C82.9474 63.6962 82.4997 63.2485 81.9474 63.2485Z" fill="#FFD3B9"/>
<path d="M104.182 49.874H90.8984C90.3461 49.874 89.8984 50.3217 89.8984 50.874V100.055C89.8984 100.607 90.3461 101.055 90.8984 101.055H104.182C104.734 101.055 105.182 100.607 105.182 100.055V50.874C105.182 50.3217 104.734 49.874 104.182 49.874Z" fill="#FFD3B9"/>
<path d="M30.1953 77.0434C30.1953 77.0434 52.1385 73.9376 69.224 56.6218C86.3096 39.3061 98.9341 36.0938 98.9341 36.0938" stroke="#292C32" stroke-width="2"/>
<path d="M97.5386 41.1782C100.097 41.1782 102.171 39.1043 102.171 36.5459C102.171 33.9875 100.097 31.9136 97.5386 31.9136C94.9802 31.9136 92.9062 33.9875 92.9062 36.5459C92.9062 39.1043 94.9802 41.1782 97.5386 41.1782Z" fill="#343472"/>
<path d="M75.0347 56.3887C77.5931 56.3887 79.667 54.3147 79.667 51.7563C79.667 49.198 77.5931 47.124 75.0347 47.124C72.4764 47.124 70.4024 49.198 70.4024 51.7563C70.4024 54.3147 72.4764 56.3887 75.0347 56.3887Z" fill="#343472"/>
<path d="M53.0776 72.5127C55.6359 72.5127 57.7099 70.4387 57.7099 67.8804C57.7099 65.322 55.6359 63.248 53.0776 63.248C50.5192 63.248 48.4453 65.322 48.4453 67.8804C48.4453 70.4387 50.5192 72.5127 53.0776 72.5127Z" fill="#343472"/>
<path d="M30.8433 81.6748C33.4017 81.6748 35.4756 79.6008 35.4756 77.0425C35.4756 74.4841 33.4017 72.4102 30.8433 72.4102C28.285 72.4102 26.211 74.4841 26.211 77.0425C26.211 79.6008 28.285 81.6748 30.8433 81.6748Z" fill="#343472"/>
</svg>
