<svg width="120" height="137" viewBox="0 0 120 137" fill="none" xmlns="http://www.w3.org/2000/svg">
<g clip-path="url(#clip0_10_508)">
<path d="M60 128.387C93.1371 128.387 120 101.524 120 68.3867C120 35.2496 93.1371 8.38672 60 8.38672C26.8629 8.38672 0 35.2496 0 68.3867C0 101.524 26.8629 128.387 60 128.387Z" fill="#F8EDE3"/>
<path d="M72.8838 26.6937C72.9003 26.7823 72.913 26.8515 72.9218 26.9001V90.7382C72.9218 91.7157 72.1293 92.5082 71.1518 92.5082H48.3481C47.3706 92.5082 46.5781 91.7157 46.5781 90.7382V26.9001C46.5869 26.8515 46.5996 26.7823 46.6161 26.6937C46.652 26.5012 46.7061 26.2175 46.7785 25.8555C46.9234 25.1313 47.1412 24.0945 47.4321 22.8497C48.0146 20.3571 48.8872 17.0432 50.0496 13.7374C51.2164 10.4194 52.6551 7.16849 54.3502 4.76576C56.0707 2.32703 57.8817 1 59.7499 1C61.6182 1 63.4292 2.32703 65.1497 4.76576C66.8448 7.16849 68.2835 10.4194 69.4503 13.7374C70.6127 17.0432 71.4853 20.3571 72.0678 22.8497C72.3587 24.0945 72.5765 25.1313 72.7214 25.8555C72.7938 26.2175 72.8479 26.5012 72.8838 26.6937Z" fill="white" stroke="#292C32" stroke-width="2"/>
<path d="M77.918 37.8128C77.918 34.6208 80.5056 32.0332 83.6976 32.0332C86.8896 32.0332 89.4772 34.6208 89.4772 37.8128V92.5084H77.918V37.8128Z" fill="white" stroke="#292C32" stroke-width="2"/>
<path d="M77.918 92.5087H103.045C103.057 92.2856 103.022 91.8761 102.777 91.2034C102.06 89.2352 99.7128 85.4649 92.989 78.6142C86.2765 71.7752 82.1497 68.6329 79.7446 67.202C78.9435 66.7254 78.3458 66.4461 77.918 66.2832V92.5087Z" fill="#343472" stroke="#292C32" stroke-width="2"/>
<path d="M25.0156 39.8123C25.0156 36.6203 27.6032 34.0327 30.7952 34.0327C33.9872 34.0327 36.5749 36.6203 36.5749 39.8123V94.5079H25.0156V39.8123Z" fill="#292C32" stroke="#292C32" stroke-width="2"/>
<path d="M11.7498 94.7441C11.7498 94.7441 11.7496 94.7438 11.7492 94.7432L11.7498 94.7441ZM11.7016 94.5083C11.6889 94.2852 11.724 93.8757 11.9691 93.203C12.6861 91.2348 15.0333 87.4646 21.7571 80.6138C28.472 73.7723 32.5379 70.6277 34.8839 69.1957C35.6171 68.7481 36.1703 68.4753 36.5733 68.3096V94.5083H11.7016Z" fill="#292C32" stroke="#292C32" stroke-width="2"/>
<path d="M30.0156 37.8123C30.0156 34.6203 32.6032 32.0327 35.7952 32.0327C38.9872 32.0327 41.5749 34.6203 41.5749 37.8123V92.5079H30.0156V37.8123Z" fill="white" stroke="#292C32" stroke-width="2"/>
<path d="M16.7498 92.7441C16.7498 92.7441 16.7496 92.7438 16.7492 92.7432L16.7498 92.7441ZM16.7016 92.5083C16.6889 92.2852 16.724 91.8757 16.9691 91.203C17.6861 89.2348 20.0333 85.4646 26.7571 78.6138C33.472 71.7723 37.5379 68.6277 39.8839 67.1957C40.6171 66.7481 41.1703 66.4753 41.5733 66.3096V92.5083H16.7016Z" fill="#343472" stroke="#292C32" stroke-width="2"/>
<path d="M47.3555 101.508H46.3555V102.508V106.17C46.3555 108.415 48.1754 110.235 50.4203 110.235H63.0737C65.3186 110.235 67.1385 108.415 67.1385 106.17V102.508V101.508H66.1385H47.3555Z" fill="#292C32" stroke="#292C32" stroke-width="2"/>
<path d="M50.3555 97.5083H49.3555V98.5083V102.17C49.3555 104.415 51.1754 106.235 53.4203 106.235H66.0737C68.3186 106.235 70.1385 104.415 70.1385 102.17V98.5083V97.5083H69.1385H50.3555Z" fill="#FFD3B9" stroke="#292C32" stroke-width="2"/>
<path d="M66.0963 25.0428V23.7747C66.0963 20.2704 63.2556 17.4297 59.7514 17.4297C56.2471 17.4297 53.4062 20.2704 53.4062 23.7747V25.0428" stroke="#292C32" stroke-width="2" stroke-linecap="round"/>
<path d="M55.5703 114.132V125.115" stroke="#292C32" stroke-width="2" stroke-linecap="round"/>
<path d="M62.5703 114.132V117.028" stroke="#292C32" stroke-width="2" stroke-linecap="round"/>
<path d="M62.5703 121.146V135.773" stroke="#292C32" stroke-width="2" stroke-linecap="round"/>
</g>
<defs>
<clipPath id="clip0_10_508">
<rect width="120" height="137" fill="white"/>
</clipPath>
</defs>
</svg>
