<svg width="134" height="137" viewBox="0 0 134 137" fill="none" xmlns="http://www.w3.org/2000/svg">
<g clip-path="url(#clip0_11_538)">
<path d="M74.4102 129C107.547 129 134.41 102.137 134.41 69C134.41 35.8629 107.547 9 74.4102 9C41.2731 9 14.4102 35.8629 14.4102 69C14.4102 102.137 41.2731 129 74.4102 129Z" fill="#F8EDE3"/>
<path d="M72.4754 112.844C95.7174 112.844 114.559 94.0027 114.559 70.7606C114.559 47.5186 95.7174 28.6772 72.4754 28.6772C49.2334 28.6772 30.392 47.5186 30.392 70.7606C30.392 94.0027 49.2334 112.844 72.4754 112.844Z" fill="#292C32" stroke="#292C32" stroke-width="1.64562"/>
<path d="M76.4754 108.844C99.7174 108.844 118.559 90.0027 118.559 66.7606C118.559 43.5186 99.7174 24.6772 76.4754 24.6772C53.2334 24.6772 34.392 43.5186 34.392 66.7606C34.392 90.0027 53.2334 108.844 76.4754 108.844Z" fill="#343472" stroke="#292C32" stroke-width="1.64562"/>
<path d="M76.4716 100.779C95.2595 100.779 110.49 85.5486 110.49 66.7607C110.49 47.9728 95.2595 32.7422 76.4716 32.7422C57.6837 32.7422 42.4531 47.9728 42.4531 66.7607C42.4531 85.5486 57.6837 100.779 76.4716 100.779Z" fill="white"/>
<path d="M76.4739 93.5161C91.2503 93.5161 103.229 81.5374 103.229 66.761C103.229 51.9845 91.2503 40.0059 76.4739 40.0059C61.6974 40.0059 49.7188 51.9845 49.7188 66.761C49.7188 81.5374 61.6974 93.5161 76.4739 93.5161Z" fill="#343472"/>
<path d="M76.472 85.8894C87.0363 85.8894 95.6004 77.3254 95.6004 66.7611C95.6004 56.1968 87.0363 47.6328 76.472 47.6328C65.9078 47.6328 57.3438 56.1968 57.3438 66.7611C57.3438 77.3254 65.9078 85.8894 76.472 85.8894Z" fill="white"/>
<path d="M76.4808 78.2961C82.8517 78.2961 88.0163 73.1315 88.0163 66.7606C88.0163 60.3897 82.8517 55.2251 76.4808 55.2251C70.1099 55.2251 64.9453 60.3897 64.9453 66.7606C64.9453 73.1315 70.1099 78.2961 76.4808 78.2961Z" fill="#343472"/>
<path d="M67.2492 66.8481H7.42188" stroke="#292C32" stroke-width="2" stroke-linecap="round"/>
<path d="M1 73.9556L8.19531 66.7622L1 59.5669" stroke="#292C32" stroke-width="2" stroke-linecap="round"/>
<path d="M9.22266 73.9556L16.418 66.7622L9.22266 59.5669" stroke="#292C32" stroke-width="2" stroke-linecap="round"/>
<path d="M67.5391 72.014V63.1786V61.5083C67.5391 60.6506 68.5479 60.1909 69.1951 60.7535L75.238 66.0064C75.6966 66.4051 75.6966 67.1172 75.238 67.5159L69.1951 72.7687C68.5479 73.3314 67.5391 72.8716 67.5391 72.014Z" fill="#292C32" stroke="#292C32" stroke-width="2" stroke-linecap="round"/>
</g>
<defs>
<clipPath id="clip0_11_538">
<rect width="134" height="137" fill="white"/>
</clipPath>
</defs>
</svg>
